<svg width="24" height="24" viewBox="0 0 24 24" fill="none" xmlns="http://www.w3.org/2000/svg">
<path fill-rule="evenodd" clip-rule="evenodd" d="M12.3099 4.31704C12.5779 4.43864 12.75 4.70573 12.75 5.00001V19C12.75 19.3034 12.5673 19.5768 12.287 19.6929C12.0068 19.809 11.6842 19.7448 11.4697 19.5303L7.68934 15.75H4C3.58579 15.75 3.25 15.4142 3.25 15V8.50001C3.25 8.0858 3.58579 7.75001 4 7.75001H7.7182L11.5061 4.43558C11.7276 4.24179 12.0419 4.19543 12.3099 4.31704ZM11.25 6.65284L8.49388 9.06444C8.35716 9.18407 8.18167 9.25001 8 9.25001H4.75V14.25H8C8.19891 14.25 8.38968 14.329 8.53033 14.4697L11.25 17.1894V6.65284ZM16.9275 5.51556C17.195 5.19935 17.6683 5.15991 17.9845 5.42747C19.1667 6.4278 20.5838 8.27303 21.0008 10.6055C21.4272 12.9905 20.7869 15.7738 18.0303 18.5303C17.7374 18.8232 17.2626 18.8232 16.9697 18.5303C16.6768 18.2374 16.6768 17.7626 16.9697 17.4697C19.4131 15.0262 19.8561 12.7262 19.5242 10.8695C19.1829 8.96032 18 7.40556 17.0155 6.57255C16.6993 6.30499 16.6599 5.83176 16.9275 5.51556ZM14.5119 7.93057C14.8264 7.661 15.2999 7.69742 15.5694 8.01192C16.1482 8.68715 16.8201 9.86692 17.0178 11.2839C17.2198 12.7313 16.9218 14.4103 15.5694 15.9881C15.2999 16.3026 14.8264 16.339 14.5119 16.0695C14.1974 15.7999 14.161 15.3264 14.4306 15.0119C15.4782 13.7897 15.6802 12.5521 15.5322 11.4912C15.3799 10.3998 14.8518 9.47954 14.4306 8.98811C14.161 8.67361 14.1974 8.20014 14.5119 7.93057Z" fill="#FCFDFC"/>
</svg>
