<svg width="24" height="24" fill="none" xmlns="http://www.w3.org/2000/svg">
  <path d="M6 2a.5.5 0 00-1 0h1zM5 22a.5.5 0 001 0H5zm3-3.5a.5.5 0 000 1v-1zm10 1a.5.5 0 000-1v1zm-10-3a.5.5 0 000 1v-1zm10 1a.5.5 0 000-1v1zM8 5v-.5a.5.5 0 00-.5.5H8zm10 0h.5a.5.5 0 00-.5-.5V5zm0 7v.5a.5.5 0 00.5-.5H18zM8 12h-.5a.5.5 0 00.5.5V12zm0 2.5a.5.5 0 000 1v-1zm10 1a.5.5 0 000-1v1zM4.5 2.5h15v-1h-15v1zM20 3v18h1V3h-1zm-.5 18.5h-15v1h15v-1zM4 21V3H3v18h1zm.5.5A.5.5 0 014 21H3c0 .8284.6716 1.5 1.5 1.5v-1zM20 21a.5.5 0 01-.5.5v1c.8284 0 1.5-.6716 1.5-1.5h-1zm-.5-18.5a.5.5 0 01.5.5h1c0-.8284-.6716-1.5-1.5-1.5v1zm-15-1C3.6716 1.5 3 2.1716 3 3h1a.5.5 0 01.5-.5v-1zM5 2v20h1V2H5zm3 17.5h10v-1H8v1zm0-2h10v-1H8v1zm0-12h10v-1H8v1zm9.5-.5v7h1V5h-1zm.5 6.5H8v1h10v-1zm-9.5.5V5h-1v7h1zM8 15.5h10v-1H8v1z" fill="#FCFDFC"/>
</svg>
