<svg xmlns="http://www.w3.org/2000/svg" width="24" height="24" viewBox="0 0 24 24" fill="none" xmlns:v="https://vecta.io/nano">
<path d="M1 17v-.5H.5v.5H1zm21.75 0h.5v-.5h-.5v.5zM4.107 5.5h15.536v-1H4.107v1zm16.071.5v10h1V6h-1zm-.536 10.5H4.107v1h15.536v-1zM3.571 16V6h-1v10h1zM.5 17v1.5h1V17h-1zm1.536 3h19.679v-1H2.036v1zm21.214-1.5V17h-1v1.5h1zm-.5-2h-3.107v1h3.107v-1zm-18.643 0H1v1h3.107v-1zm1.243-9H18.4v-1H5.35v1zm12.757-.3v7.6h1V7.2h-1zm.293 7.3H5.35v1H18.4v-1zm-12.757.3V7.2h-1v7.6h1zm12.464 0c0-.182.148-.3.293-.3v1c.374 0 .707-.297.707-.7h-1zm.293-7.3c-.145 0-.293-.118-.293-.3h1c0-.403-.333-.7-.707-.7v1zm-13.05-1c-.374 0-.707.297-.707.7h1c0 .182-.148.3-.293.3v-1zM21.714 20c.831 0 1.536-.655 1.536-1.5h-1c0 .26-.223.5-.536.5v1zM4.107 16.5c-.313 0-.536-.24-.536-.5h-1c0 .845.704 1.5 1.536 1.5v-1zm16.071-.5c0 .26-.223.5-.536.5v1c.831 0 1.536-.655 1.536-1.5h-1zm-.536-10.5c.313 0 .536.24.536.5h1c0-.845-.704-1.5-1.536-1.5v1zM.5 18.5c0 .845.704 1.5 1.536 1.5v-1c-.313 0-.536-.24-.536-.5h-1zm4.85-4c.145 0 .293.118.293.3h-1c0 .403.333.7.707.7v-1zm-1.243-10c-.831 0-1.536.655-1.536 1.5h1c0-.26.223-.5.536-.5v-1zm4.661 14h6.214v-1H8.768v1z" fill="#2d3436"/>
</svg>