<svg xmlns="http://www.w3.org/2000/svg" width="24" height="24" viewBox="0 0 24 24" fill="none"  xmlns:v="https://vecta.io/nano"><path d="M6 2a.5.5 0 1 0-1 0h1zM5 22a.5.5 0 1 0 1 0H5zm3-3.5a.5.5 0 1 0 0 1v-1zm10 1a.5.5 0 1 0 0-1v1zm-10-3a.5.5 0 1 0 0 1v-1zm10 1a.5.5 0 1 0 0-1v1zM8 5v-.5a.5.5 0 0 0-.5.5H8zm10 0h.5a.5.5 0 0 0-.5-.5V5zm0 7v.5a.5.5 0 0 0 .5-.5H18zM8 12h-.5a.5.5 0 0 0 .5.5V12zm0 2.5a.5.5 0 1 0 0 1v-1zm10 1a.5.5 0 1 0 0-1v1zM4.5 2.5h15v-1h-15v1zM20 3v18h1V3h-1zm-.5 18.5h-15v1h15v-1zM4 21V3H3v18h1zm.5.5A.5.5 0 0 1 4 21H3a1.5 1.5 0 0 0 1.5 1.5v-1zM20 21a.5.5 0 0 1-.5.5v1A1.5 1.5 0 0 0 21 21h-1zm-.5-18.5a.5.5 0 0 1 .5.5h1a1.5 1.5 0 0 0-1.5-1.5v1zm-15-1A1.5 1.5 0 0 0 3 3h1a.5.5 0 0 1 .5-.5v-1zM5 2v20h1V2H5zm3 17.5h10v-1H8v1zm0-2h10v-1H8v1zm0-12h10v-1H8v1zm9.5-.5v7h1V5h-1zm.5 6.5H8v1h10v-1zm-9.5.5V5h-1v7h1zM8 15.5h10v-1H8v1z" fill="#2d3436"/></svg>