<svg xmlns="http://www.w3.org/2000/svg" width="24" height="24" fill="none" viewBox="0 0 24 24" xmlns:v="https://vecta.io/nano"><path d="M6.333 16.777a.75.75 0 0 0 1.333.687l-1.333-.687zm10 .687a.75.75 0 1 0 1.333-.687l-1.333.687zM14.25 9A2.25 2.25 0 0 1 12 11.25v1.5A3.75 3.75 0 0 0 15.75 9h-1.5zM12 11.25A2.25 2.25 0 0 1 9.75 9h-1.5A3.75 3.75 0 0 0 12 12.75v-1.5zM9.75 9A2.25 2.25 0 0 1 12 6.75v-1.5A3.75 3.75 0 0 0 8.25 9h1.5zM12 6.75A2.25 2.25 0 0 1 14.25 9h1.5A3.75 3.75 0 0 0 12 5.25v1.5zM7.667 17.463c1.864-3.618 6.803-3.618 8.667 0l1.333-.687c-2.422-4.702-8.911-4.702-11.333 0l1.333.687zM20.25 12A8.25 8.25 0 0 1 12 20.25v1.5A9.75 9.75 0 0 0 21.75 12h-1.5zM12 20.25A8.25 8.25 0 0 1 3.75 12h-1.5c0 5.385 4.365 9.75 9.75 9.75v-1.5zM3.75 12A8.25 8.25 0 0 1 12 3.75v-1.5c-5.385 0-9.75 4.365-9.75 9.75h1.5zM12 3.75A8.25 8.25 0 0 1 20.25 12h1.5c0-5.385-4.365-9.75-9.75-9.75v1.5z" fill="#2d3436"/></svg>