<svg width="24" height="24" viewBox="0 0 24 24" fill="none" xmlns="http://www.w3.org/2000/svg">
<path fill-rule="evenodd" clip-rule="evenodd" d="M4.6 5.2C4.37909 5.2 4.2 5.37909 4.2 5.6V17.6C4.2 17.8209 4.37909 18 4.6 18H19.6C19.8209 18 20 17.8209 20 17.6V8.6C20 8.37909 19.8209 8.2 19.6 8.2H12.5684C12.0935 8.2 11.6432 7.98908 11.3392 7.6243L9.43891 5.34393C9.36292 5.25273 9.25034 5.2 9.13162 5.2H4.6ZM3 5.6C3 4.71635 3.71634 4 4.6 4H9.13162C9.5726 4 9.99241 4.1819 10.2935 4.5H18.6C19.4837 4.5 20.2 5.21634 20.2 6.1V7.1163C20.7864 7.35366 21.2 7.92852 21.2 8.6V17.6C21.2 18.4837 20.4837 19.2 19.6 19.2H4.6C3.71634 19.2 3 18.4837 3 17.6V5.6ZM19 7V6.1C19 5.87909 18.8209 5.7 18.6 5.7H11.2977L12.2611 6.85607C12.3371 6.94727 12.4497 7 12.5684 7H19Z" fill="#2D3436"/>
</svg>
