<svg width="24" height="24" viewBox="0 0 24 24" fill="none" xmlns="http://www.w3.org/2000/svg">
<path fill-rule="evenodd" clip-rule="evenodd" d="M2.1001 2.6C2.1001 2.26863 2.36873 2 2.7001 2H7.58581C7.91718 2 8.18581 2.26863 8.18581 2.6V21.6C8.18581 21.9314 7.91718 22.2 7.58581 22.2H2.7001C2.36873 22.2 2.1001 21.9314 2.1001 21.6V2.6ZM3.3001 3.2V21H6.98581V3.2H3.3001ZM8.98584 2.6C8.98584 2.26863 9.25447 2 9.58584 2H14.4716C14.8029 2 15.0716 2.26863 15.0716 2.6V21.6C15.0716 21.9314 14.8029 22.2 14.4716 22.2H9.58584C9.25447 22.2 8.98584 21.9314 8.98584 21.6V2.6ZM10.1858 3.2V21H13.8716V3.2H10.1858ZM15.8716 2.6C15.8716 2.26863 16.1402 2 16.4716 2H21.3573C21.6887 2 21.9573 2.26863 21.9573 2.6V21.6C21.9573 21.9314 21.6887 22.2 21.3573 22.2H16.4716C16.1402 22.2 15.8716 21.9314 15.8716 21.6V2.6ZM17.0716 3.2V21H20.7573V3.2H17.0716ZM3.54297 4.6C3.54297 4.26863 3.8116 4 4.14297 4H6.14297C6.47434 4 6.74297 4.26863 6.74297 4.6C6.74297 4.93137 6.47434 5.2 6.14297 5.2H4.14297C3.8116 5.2 3.54297 4.93137 3.54297 4.6ZM10.4287 4.6C10.4287 4.26863 10.6973 4 11.0287 4H13.0287C13.3601 4 13.6287 4.26863 13.6287 4.6C13.6287 4.93137 13.3601 5.2 13.0287 5.2H11.0287C10.6973 5.2 10.4287 4.93137 10.4287 4.6ZM17.3145 4.6C17.3145 4.26863 17.5831 4 17.9145 4H19.9145C20.2458 4 20.5145 4.26863 20.5145 4.6C20.5145 4.93137 20.2458 5.2 19.9145 5.2H17.9145C17.5831 5.2 17.3145 4.93137 17.3145 4.6ZM3.54297 6.6C3.54297 6.26863 3.8116 6 4.14297 6H6.14297C6.47434 6 6.74297 6.26863 6.74297 6.6C6.74297 6.93137 6.47434 7.2 6.14297 7.2H4.14297C3.8116 7.2 3.54297 6.93137 3.54297 6.6ZM10.4287 6.6C10.4287 6.26863 10.6973 6 11.0287 6H13.0287C13.3601 6 13.6287 6.26863 13.6287 6.6C13.6287 6.93137 13.3601 7.2 13.0287 7.2H11.0287C10.6973 7.2 10.4287 6.93137 10.4287 6.6ZM17.3145 6.6C17.3145 6.26863 17.5831 6 17.9145 6H19.9145C20.2458 6 20.5145 6.26863 20.5145 6.6C20.5145 6.93137 20.2458 7.2 19.9145 7.2H17.9145C17.5831 7.2 17.3145 6.93137 17.3145 6.6ZM3.54297 8.6C3.54297 8.26863 3.8116 8 4.14297 8H6.14297C6.47434 8 6.74297 8.26863 6.74297 8.6C6.74297 8.93137 6.47434 9.2 6.14297 9.2H4.14297C3.8116 9.2 3.54297 8.93137 3.54297 8.6ZM10.4287 8.6C10.4287 8.26863 10.6973 8 11.0287 8H13.0287C13.3601 8 13.6287 8.26863 13.6287 8.6C13.6287 8.93137 13.3601 9.2 13.0287 9.2H11.0287C10.6973 9.2 10.4287 8.93137 10.4287 8.6ZM17.3145 8.6C17.3145 8.26863 17.5831 8 17.9145 8H19.9145C20.2458 8 20.5145 8.26863 20.5145 8.6C20.5145 8.93137 20.2458 9.2 19.9145 9.2H17.9145C17.5831 9.2 17.3145 8.93137 17.3145 8.6ZM5.14297 18.2C4.92205 18.2 4.74297 18.3791 4.74297 18.6C4.74297 18.8209 4.92205 19 5.14297 19C5.36388 19 5.54297 18.8209 5.54297 18.6C5.54297 18.3791 5.36388 18.2 5.14297 18.2ZM3.54297 18.6C3.54297 17.7163 4.25931 17 5.14297 17C6.02662 17 6.74297 17.7163 6.74297 18.6C6.74297 19.4837 6.02662 20.2 5.14297 20.2C4.25931 20.2 3.54297 19.4837 3.54297 18.6ZM12.0287 18.2C11.8078 18.2 11.6287 18.3791 11.6287 18.6C11.6287 18.8209 11.8078 19 12.0287 19C12.2496 19 12.4287 18.8209 12.4287 18.6C12.4287 18.3791 12.2496 18.2 12.0287 18.2ZM10.4287 18.6C10.4287 17.7163 11.1451 17 12.0287 17C12.9124 17 13.6287 17.7163 13.6287 18.6C13.6287 19.4837 12.9124 20.2 12.0287 20.2C11.1451 20.2 10.4287 19.4837 10.4287 18.6ZM18.9145 18.2C18.6935 18.2 18.5145 18.3791 18.5145 18.6C18.5145 18.8209 18.6935 19 18.9145 19C19.1354 19 19.3145 18.8209 19.3145 18.6C19.3145 18.3791 19.1354 18.2 18.9145 18.2ZM17.3145 18.6C17.3145 17.7163 18.0308 17 18.9145 17C19.7981 17 20.5145 17.7163 20.5145 18.6C20.5145 19.4837 19.7981 20.2 18.9145 20.2C18.0308 20.2 17.3145 19.4837 17.3145 18.6Z" fill="#2D3436"/>
</svg>
