<svg width="24" height="24" viewBox="0 0 24 24" fill="none" xmlns="http://www.w3.org/2000/svg">
<path fill-rule="evenodd" clip-rule="evenodd" d="M3 3C3 2.17157 3.67157 1.5 4.5 1.5H19.5C20.3284 1.5 21 2.17157 21 3V21C21 21.8284 20.3284 22.5 19.5 22.5H4.5C3.67157 22.5 3 21.8284 3 21V3ZM6 21.5H19.5C19.7761 21.5 20 21.2761 20 21V3C20 2.72386 19.7761 2.5 19.5 2.5H6V21.5ZM5 2.5V21.5H4.5C4.22386 21.5 4 21.2761 4 21V3C4 2.72386 4.22386 2.5 4.5 2.5H5ZM7.5 5C7.5 4.72386 7.72386 4.5 8 4.5H18C18.2761 4.5 18.5 4.72386 18.5 5V12C18.5 12.2761 18.2761 12.5 18 12.5H8C7.72386 12.5 7.5 12.2761 7.5 12V5ZM8.5 5.5V11.5H17.5V5.5H8.5ZM7.5 15C7.5 14.7239 7.72386 14.5 8 14.5H18C18.2761 14.5 18.5 14.7239 18.5 15C18.5 15.2761 18.2761 15.5 18 15.5H8C7.72386 15.5 7.5 15.2761 7.5 15ZM7.5 17C7.5 16.7239 7.72386 16.5 8 16.5H18C18.2761 16.5 18.5 16.7239 18.5 17C18.5 17.2761 18.2761 17.5 18 17.5H8C7.72386 17.5 7.5 17.2761 7.5 17ZM7.5 19C7.5 18.7239 7.72386 18.5 8 18.5H18C18.2761 18.5 18.5 18.7239 18.5 19C18.5 19.2761 18.2761 19.5 18 19.5H8C7.72386 19.5 7.5 19.2761 7.5 19Z" fill="#2D3436"/>
</svg>
