<svg width="24" height="24" viewBox="0 0 24 24" fill="none" xmlns="http://www.w3.org/2000/svg">
<path fill-rule="evenodd" clip-rule="evenodd" d="M12.513 3.46924C7.95666 3.46924 4.26318 7.16287 4.26318 11.7192C4.26318 16.2756 7.95683 19.9692 12.5132 19.9692C17.0695 19.9692 20.7632 16.2756 20.7632 11.7192C20.7632 7.16291 17.0694 3.46924 12.513 3.46924ZM2.76318 11.7192C2.76318 6.33448 7.12819 1.96924 12.513 1.96924C17.8977 1.96924 22.2632 6.33444 22.2632 11.7192C22.2632 17.104 17.898 21.4692 12.5132 21.4692C7.12841 21.4692 2.76318 17.104 2.76318 11.7192ZM12.4622 5.75073C12.4513 5.75117 12.439 5.75183 12.4253 5.7528C12.3917 5.75521 12.3486 5.75965 12.2988 5.76794C12.2028 5.78395 12.0633 5.81735 11.9148 5.89161C11.7633 5.96734 11.5891 6.09267 11.4543 6.29467C11.3164 6.50135 11.2501 6.74329 11.2499 6.99952V7.00062C11.2501 7.25682 11.3164 7.4987 11.4543 7.70533C11.589 7.90726 11.7632 8.03257 11.9146 8.10829C12.0631 8.18255 12.2025 8.21597 12.2984 8.232C12.3482 8.24031 12.3913 8.24476 12.4249 8.24717C12.4418 8.24838 12.4567 8.2491 12.4692 8.24952L12.4863 8.24996L12.4935 8.25004L12.4968 8.25006L12.4983 8.25007C12.4983 8.25007 12.4863 8.24996 12.4935 8.25004C12.5033 8.25006 12.501 8.25007 12.501 8.25007L12.5033 8.25006L12.5066 8.25004L12.5138 8.24996L12.5309 8.24953C12.5434 8.2491 12.5582 8.24838 12.5752 8.24717C12.6088 8.24476 12.6519 8.24031 12.7017 8.23201C12.7976 8.21599 12.9371 8.18258 13.0856 8.10831C13.237 8.03257 13.4113 7.90718 13.5461 7.70503C13.6839 7.49824 13.7501 7.25623 13.7501 7.00004M12.4622 5.75073C12.474 5.75001 12.4876 5.74938 12.5026 5.749C12.5384 5.74809 12.5846 5.74851 12.638 5.75277C12.7406 5.76096 12.8931 5.78507 13.0569 5.85845C13.2269 5.93463 13.4133 6.06661 13.5526 6.28288C13.6915 6.49865 13.75 6.7467 13.7501 7.00004M12.5001 9.25C12.9143 9.25 13.2501 9.58579 13.2501 10V13.5C13.2501 13.7745 13.2533 14.7727 13.2565 15.7045L13.263 17.4966L12.5158 18.25L12.4979 18.2499L11.763 17.5028L11.7565 15.7097C11.7533 14.7797 11.7501 13.7779 11.7501 13.5V10C11.7501 9.58579 12.0858 9.25 12.5001 9.25ZM12.5158 18.25C12.1016 18.2515 11.7645 17.917 11.763 17.5028L12.4979 18.2499L12.5158 18.25L13.263 17.4966C13.2645 17.9108 12.93 18.2484 12.5158 18.25Z" fill="#2D3436"/>
</svg>
