<svg width="24" height="24" viewBox="0 0 24 24" fill="none" xmlns="http://www.w3.org/2000/svg">
<path fill-rule="evenodd" clip-rule="evenodd" d="M2.47133 5.9999C2.47133 5.09657 3.22369 4.3999 4.10705 4.3999H19.6428C20.5261 4.3999 21.2785 5.09657 21.2785 5.9999V15.9999C21.2785 16.1387 21.2607 16.2726 21.2274 16.3999H23.3499V18.4999C23.3499 19.4032 22.5975 20.0999 21.7142 20.0999H2.03562C1.15226 20.0999 0.399902 19.4032 0.399902 18.4999V16.3999H2.52237C2.48909 16.2726 2.47133 16.1387 2.47133 15.9999V5.9999ZM1.5999 17.5999V18.4999C1.5999 18.7011 1.77496 18.8999 2.03562 18.8999H21.7142C21.9748 18.8999 22.1499 18.7011 22.1499 18.4999V17.5999H14.9822V18.5999H8.7679V17.5999H1.5999ZM19.6428 16.3999C19.9034 16.3999 20.0785 16.2011 20.0785 15.9999V5.9999C20.0785 5.79866 19.9034 5.5999 19.6428 5.5999H4.10705C3.84639 5.5999 3.67133 5.79866 3.67133 5.9999V15.9999C3.67133 16.2011 3.84639 16.3999 4.10705 16.3999H19.6428ZM4.54276 7.1999C4.54276 6.7384 4.92415 6.3999 5.3499 6.3999H18.3999C18.8257 6.3999 19.207 6.7384 19.207 7.1999V14.7999C19.207 15.2614 18.8257 15.5999 18.3999 15.5999H5.3499C4.92415 15.5999 4.54276 15.2614 4.54276 14.7999V7.1999ZM5.74276 7.5999V14.3999H18.007V7.5999H5.74276Z" fill="#2D3436"/>
</svg>
