<svg xmlns="http://www.w3.org/2000/svg" width="24" height="24" fill="none" viewBox="0 0 24 24"  xmlns:v="https://vecta.io/nano"><path d="M4.143 4.1a.5.5 0 1 0 0 1v-1zm2 1a.5.5 0 1 0 0-1v1zm-2 1a.5.5 0 1 0 0 1v-1zm2 1a.5.5 0 1 0 0-1v1zm-2 1a.5.5 0 1 0 0 1v-1zm2 1a.5.5 0 1 0 0-1v1zm1.443-6.5h.5a.5.5 0 0 0-.5-.5v.5zM2.7 2.6v-.5a.5.5 0 0 0-.5.5h.5zm0 19h-.5a.5.5 0 0 0 .5.5v-.5zm4.886 0v.5a.5.5 0 0 0 .5-.5h-.5zm3.443-17.5a.5.5 0 1 0 0 1v-1zm2 1a.5.5 0 1 0 0-1v1zm-2 1a.5.5 0 1 0 0 1v-1zm2 1a.5.5 0 1 0 0-1v1zm-2 1a.5.5 0 1 0 0 1v-1zm2 1a.5.5 0 1 0 0-1v1zm1.443-6.5h.5a.5.5 0 0 0-.5-.5v.5zm-4.886 0v-.5a.5.5 0 0 0-.5.5h.5zm0 19h-.5a.5.5 0 0 0 .5.5v-.5zm4.886 0v.5a.5.5 0 0 0 .5-.5h-.5zm3.443-17.5a.5.5 0 1 0 0 1v-1zm2 1a.5.5 0 1 0 0-1v1zm-2 1a.5.5 0 1 0 0 1v-1zm2 1a.5.5 0 1 0 0-1v1zm-2 1a.5.5 0 1 0 0 1v-1zm2 1a.5.5 0 1 0 0-1v1zm1.443-6.5h.5a.5.5 0 0 0-.5-.5v.5zm-4.886 0v-.5a.5.5 0 0 0-.5.5h.5zm0 19h-.5a.5.5 0 0 0 .5.5v-.5zm4.886 0v.5a.5.5 0 0 0 .5-.5h-.5zm-15.714-3a.5.5 0 0 1-.5.5v1a1.5 1.5 0 0 0 1.5-1.5h-1zm-.5.5a.5.5 0 0 1-.5-.5h-1a1.5 1.5 0 0 0 1.5 1.5v-1zm-.5-.5a.5.5 0 0 1 .5-.5v-1a1.5 1.5 0 0 0-1.5 1.5h1zm.5-.5a.5.5 0 0 1 .5.5h1a1.5 1.5 0 0 0-1.5-1.5v1zm-1-13h2v-1h-2v1zm0 2h2v-1h-2v1zm0 2h2v-1h-2v1zm3.443-7H2.7v1h4.886v-1zM2.2 2.6v19h1v-19h-1zm.5 19.5h4.886v-1H2.7v1zm5.386-.5v-19h-1v19h1zm4.443-3a.5.5 0 0 1-.5.5v1a1.5 1.5 0 0 0 1.5-1.5h-1zm-.5.5a.5.5 0 0 1-.5-.5h-1a1.5 1.5 0 0 0 1.5 1.5v-1zm-.5-.5a.5.5 0 0 1 .5-.5v-1a1.5 1.5 0 0 0-1.5 1.5h1zm.5-.5a.5.5 0 0 1 .5.5h1a1.5 1.5 0 0 0-1.5-1.5v1zm-1-13h2v-1h-2v1zm0 2h2v-1h-2v1zm0 2h2v-1h-2v1zm3.443-7H9.586v1h4.886v-1zm-5.386.5v19h1v-19h-1zm.5 19.5h4.886v-1H9.586v1zm5.386-.5v-19h-1v19h1zm4.443-3a.5.5 0 0 1-.5.5v1a1.5 1.5 0 0 0 1.5-1.5h-1zm-.5.5a.5.5 0 0 1-.5-.5h-1a1.5 1.5 0 0 0 1.5 1.5v-1zm-.5-.5a.5.5 0 0 1 .5-.5v-1a1.5 1.5 0 0 0-1.5 1.5h1zm.5-.5a.5.5 0 0 1 .5.5h1a1.5 1.5 0 0 0-1.5-1.5v1zm-1-13h2v-1h-2v1zm0 2h2v-1h-2v1zm0 2h2v-1h-2v1zm3.443-7h-4.886v1h4.886v-1zm-5.386.5v19h1v-19h-1zm.5 19.5h4.886v-1h-4.886v1zm5.386-.5v-19h-1v19h1z" fill="#2d3436"/></svg>