<svg width="24" height="24" fill="none" xmlns="http://www.w3.org/2000/svg">
  <path d="M1 17v-.5H.5v.5H1zm21.75 0h.5v-.5h-.5v.5zM4.1071 5.5H19.643v-1H4.1071v1zm16.0715.5v10h1V6h-1zm-.5357 10.5H4.1071v1H19.643v-1zM3.5714 16V6h-1v10h1zM.5 17v1.5h1V17h-1zm1.5357 3h19.6786v-1H2.0357v1zM23.25 18.5V17h-1v1.5h1zm-.5-2h-3.1071v1H22.75v-1zm-18.6429 0H1v1h3.1071v-1zm1.2429-9H18.4v-1H5.35v1zm12.7571-.3v7.6h1V7.2h-1zm.2929 7.3H5.35v1H18.4v-1zm-12.7571.3V7.2h-1v7.6h1zm12.4642 0c0-.1821.1478-.3.2929-.3v1c.3739 0 .7071-.297.7071-.7h-1zM18.4 7.5a.2965.2965 0 01-.2929-.3h1c0-.403-.3332-.7-.7071-.7v1zm-13.05-1c-.3739 0-.7071.297-.7071.7h1c0 .182-.1478.3-.2929.3v-1zM21.7143 20c.8315 0 1.5357-.6552 1.5357-1.5h-1c0 .2597-.2232.5-.5357.5v1zM4.1071 16.5c-.3125 0-.5357-.2403-.5357-.5h-1c0 .8448.7043 1.5 1.5357 1.5v-1zm16.0715-.5c0 .2597-.2232.5-.5357.5v1c.8314 0 1.5357-.6552 1.5357-1.5h-1zm-.5357-10.5c.3125 0 .5357.2402.5357.5h1c0-.8448-.7043-1.5-1.5357-1.5v1zM.5 18.5c0 .8448.7043 1.5 1.5357 1.5v-1c-.3125 0-.5357-.2403-.5357-.5h-1zm4.85-4c.145 0 .2929.1179.2929.3h-1c0 .403.3332.7.7071.7v-1zm-1.2429-10c-.8314 0-1.5357.6552-1.5357 1.5h1c0-.2598.2232-.5.5357-.5v-1zm4.6609 14h6.2143v-1H8.768v1z" fill="#FCFDFC"/>
</svg>
