<svg width="24" height="24" viewBox="0 0 24 24" fill="none" xmlns="http://www.w3.org/2000/svg">
<path fill-rule="evenodd" clip-rule="evenodd" d="M8.2 4C8.2 3.44772 8.64772 3 9.2 3H13.7C14.2523 3 14.7 3.44772 14.7 4H18.5C18.7761 4 19 4.22386 19 4.5V21C19 21.2761 18.7761 21.5 18.5 21.5H4.5C4.22386 21.5 4 21.2761 4 21V4.5C4 4.22386 4.22386 4 4.5 4H8.2ZM8.2 5H5V20.5H18V5H14.7V5.5C14.7 6.05228 14.2523 6.5 13.7 6.5H9.2C8.64772 6.5 8.2 6.05228 8.2 5.5V5ZM13.7 4H9.2V5.5H13.7V4ZM6.75 10C6.75 9.72386 6.97386 9.5 7.25 9.5H15.75C16.0261 9.5 16.25 9.72386 16.25 10C16.25 10.2761 16.0261 10.5 15.75 10.5H7.25C6.97386 10.5 6.75 10.2761 6.75 10ZM6.75 13C6.75 12.7239 6.97386 12.5 7.25 12.5H15.75C16.0261 12.5 16.25 12.7239 16.25 13C16.25 13.2761 16.0261 13.5 15.75 13.5H7.25C6.97386 13.5 6.75 13.2761 6.75 13ZM6.75 16C6.75 15.7239 6.97386 15.5 7.25 15.5H15.75C16.0261 15.5 16.25 15.7239 16.25 16C16.25 16.2761 16.0261 16.5 15.75 16.5H7.25C6.97386 16.5 6.75 16.2761 6.75 16Z" fill="#2D3436"/>
</svg>
