<svg width="24" height="24" viewBox="0 0 24 24" fill="none" xmlns="http://www.w3.org/2000/svg">
<path fill-rule="evenodd" clip-rule="evenodd" d="M11.9999 3.5999C7.36071 3.5999 3.5999 7.36071 3.5999 11.9999C3.5999 16.6391 7.36071 20.3999 11.9999 20.3999C16.6391 20.3999 20.3999 16.6391 20.3999 11.9999C20.3999 7.36071 16.6391 3.5999 11.9999 3.5999ZM2.3999 11.9999C2.3999 6.69797 6.69797 2.3999 11.9999 2.3999C17.3018 2.3999 21.5999 6.69797 21.5999 11.9999C21.5999 17.3018 17.3018 21.5999 11.9999 21.5999C6.69797 21.5999 2.3999 17.3018 2.3999 11.9999ZM11.9999 6.5999C10.6744 6.5999 9.5999 7.67442 9.5999 8.9999C9.5999 10.3254 10.6744 11.3999 11.9999 11.3999C13.3254 11.3999 14.3999 10.3254 14.3999 8.9999C14.3999 7.67442 13.3254 6.5999 11.9999 6.5999ZM8.3999 8.9999C8.3999 7.01168 10.0117 5.3999 11.9999 5.3999C13.9881 5.3999 15.5999 7.01168 15.5999 8.9999C15.5999 10.9881 13.9881 12.5999 11.9999 12.5999C10.0117 12.5999 8.3999 10.9881 8.3999 8.9999ZM6.72515 17.6533C6.43056 17.5016 6.31476 17.1397 6.46651 16.8451C8.83275 12.2515 15.1671 12.2515 17.5333 16.8451C17.685 17.1397 17.5692 17.5016 17.2747 17.6533C16.9801 17.805 16.6183 17.6892 16.4665 17.3947C14.547 13.6683 9.45277 13.6683 7.5333 17.3947C7.38155 17.6892 7.01973 17.805 6.72515 17.6533Z" fill="#2D3436"/>
</svg>
