<svg width="48" height="48" viewBox="0 0 48 48" fill="none" xmlns="http://www.w3.org/2000/svg">
<path fill-rule="evenodd" clip-rule="evenodd" d="M16.3635 7.75C11.9919 7.75 8.47704 11.2107 8.47704 15.4444C8.47704 16.448 8.67208 17.7139 9.00073 18.547C9.08894 18.7706 9.06462 19.023 8.93534 19.2256C8.68688 19.6151 8.138 20.8144 7.62288 21.9942C7.50117 22.273 7.38364 22.5452 7.27543 22.7977C7.51303 22.7361 7.76926 22.6686 8.03573 22.5967C9.26374 22.2654 10.6547 21.8552 11.4633 21.5102C11.6876 21.4145 11.9443 21.4338 12.1518 21.5619C13.4885 22.3875 14.9044 23.1389 16.3635 23.1389C20.7351 23.1389 24.25 19.6782 24.25 15.4444C24.25 11.2107 20.7351 7.75 16.3635 7.75ZM5.99999 23.8889L5.65362 23.7452L5.30725 23.6015L5.32715 23.5536L5.38339 23.4188C5.43205 23.3025 5.50213 23.1354 5.588 22.9322C5.75966 22.526 5.99477 21.9744 6.2482 21.394C6.65627 20.4594 7.14002 19.3832 7.48016 18.7498C7.14744 17.7387 6.97704 16.462 6.97704 15.4444C6.97704 10.3507 11.1955 6.25 16.3635 6.25C21.5315 6.25 25.75 10.3507 25.75 15.4444C25.75 20.5382 21.5315 24.6389 16.3635 24.6389C14.589 24.6389 12.9712 23.8088 11.6882 23.0363C10.7709 23.3872 9.49533 23.7565 8.42646 24.0449C7.80877 24.2116 7.24607 24.3548 6.83786 24.4564C6.63365 24.5073 6.46785 24.5477 6.35284 24.5755L6.21992 24.6075L6.1849 24.6158L6.17334 24.6186C6.17334 24.6186 6.17238 24.6188 5.99999 23.8889ZM5.99999 23.8889L6.17334 24.6186C5.89928 24.6833 5.6111 24.5893 5.42867 24.3748C5.24623 24.1603 5.19936 23.8616 5.30725 23.6015L5.65362 23.7452L5.99999 23.8889ZM15.2519 11.1831C14.9736 11.4479 14.75 11.8737 14.75 12.5346C14.75 12.9489 14.4142 13.2846 14 13.2846C13.5858 13.2846 13.25 12.9489 13.25 12.5346C13.25 11.5029 13.6143 10.6709 14.2178 10.0965C14.8106 9.53232 15.5858 9.26249 16.3396 9.25043C17.0916 9.23839 17.8653 9.48217 18.4611 10.0015C19.0706 10.5329 19.4531 11.3187 19.4531 12.2901C19.4531 12.3016 19.4532 12.3141 19.4533 12.3276C19.4546 12.5238 19.4573 12.928 19.2269 13.4581C18.9896 14.0039 18.532 14.6308 17.6943 15.3568C17.6125 15.4277 17.5336 15.4878 17.4711 15.5348C17.461 15.5424 17.4515 15.5495 17.4425 15.5563C17.3902 15.5956 17.353 15.6236 17.3161 15.6538C17.2425 15.7141 17.201 15.7592 17.1649 15.8199C17.0819 15.9598 16.9531 16.3108 16.9531 17.29C16.9531 17.7043 16.6173 18.04 16.2031 18.04C15.7889 18.04 15.4531 17.7043 15.4531 17.29C15.4531 16.238 15.5803 15.5505 15.8753 15.0539C16.0282 14.7965 16.2062 14.6239 16.3658 14.4932C16.4291 14.4414 16.4945 14.3923 16.5456 14.354C16.5538 14.3478 16.5616 14.342 16.569 14.3364C16.6278 14.2921 16.6717 14.2582 16.7119 14.2233C17.4367 13.5951 17.7291 13.1412 17.8512 12.8602C17.955 12.6214 17.9541 12.4754 17.9533 12.3296C17.9532 12.3164 17.9531 12.3033 17.9531 12.2901C17.9531 11.7381 17.7477 11.3696 17.4754 11.1322C17.1894 10.8829 16.7873 10.7435 16.3636 10.7502C15.9415 10.757 15.541 10.908 15.2519 11.1831ZM14.9531 19.79C14.9531 19.0997 15.5128 18.54 16.2031 18.54C16.8935 18.54 17.4531 19.0997 17.4531 19.79C17.4531 20.4804 16.8935 21.04 16.2031 21.04C15.5128 21.04 14.9531 20.4804 14.9531 19.79ZM21.25 31.5C21.25 25.8357 25.8629 21.25 31.5456 21.25C37.2283 21.25 41.8411 25.8357 41.8411 31.5C41.8411 32.6508 41.649 34.0974 41.2762 35.2284C41.6493 35.9279 42.194 37.16 42.6552 38.2352C42.9351 38.8877 43.1948 39.5079 43.3845 39.9646C43.4793 40.1931 43.5567 40.3809 43.6105 40.5117L43.6726 40.6632L43.6941 40.716C43.6941 40.716 43.6945 40.717 43 41C42.8247 41.7292 42.8246 41.7292 42.8246 41.7292L42.821 41.7283L42.8109 41.7259L42.7723 41.7165L42.6256 41.6806C42.4986 41.6494 42.3155 41.6039 42.0899 41.5468C41.6391 41.4325 41.0176 41.2715 40.3354 41.0841C39.1413 40.7562 37.7179 40.3363 36.7063 39.9397C35.2861 40.8122 33.5012 41.75 31.5456 41.75C25.8629 41.75 21.25 37.1643 21.25 31.5ZM43 41L42.8246 41.7292C43.0981 41.7949 43.3855 41.7022 43.5688 41.4888C43.7522 41.2755 43.8007 40.9775 43.6945 40.717L43 41ZM41.7346 39.9063C41.5955 39.5747 41.4395 39.206 41.2767 38.8265C40.7088 37.5026 40.0987 36.1445 39.819 35.6983C39.6933 35.4978 39.6697 35.2497 39.7552 35.029C40.1243 34.0767 40.3411 32.6388 40.3411 31.5C40.3411 26.6709 36.4066 22.75 31.5456 22.75C26.6845 22.75 22.75 26.6709 22.75 31.5C22.75 36.3291 26.6845 40.25 31.5456 40.25C33.179 40.25 34.7591 39.3943 36.2371 38.4651C36.4467 38.3333 36.7079 38.3134 36.935 38.4121C37.834 38.8025 39.3758 39.2651 40.7326 39.6377C41.0886 39.7355 41.4281 39.826 41.7346 39.9063ZM30.25 26.5C30.25 25.8096 30.8096 25.25 31.5 25.25C32.1903 25.25 32.75 25.8096 32.75 26.5C32.75 27.1904 32.1903 27.75 31.5 27.75C30.8096 27.75 30.25 27.1904 30.25 26.5ZM31.5 28.75C31.9142 28.75 32.25 29.0858 32.25 29.5V36.5C32.25 36.9142 31.9142 37.25 31.5 37.25C31.0858 37.25 30.75 36.9142 30.75 36.5V29.5C30.75 29.0858 31.0858 28.75 31.5 28.75Z" fill="#FCFDFC"/>
</svg>
