<svg width="39" height="36" fill="none" xmlns="http://www.w3.org/2000/svg">
  <path d="M38 35l-.1753.7292a.7497.7497 0 00.7441-.2404.7497.7497 0 00.1257-.7718L38 35zm-2.5455-5.7l-.6993-.271a.75.75 0 00.0638.6693l.6355-.3983zm-3.8182 3.8l.2987-.6879a.7497.7497 0 00-.6979.053l.3992.6349zM27.25 23.5a.75.75 0 00-1.5 0h1.5zm-1.5 7a.75.75 0 001.5 0h-1.5zM8.25 6.5346a.75.75 0 001.5 0h-1.5zm3.9531 2.2555l.4912.5667-.4912-.5667zm-1.75 2.4999a.75.75 0 00.75.75.75.75 0 00.75-.75h-1.5zM1 17.8889l-.6928-.2874a.7501.7501 0 00.8652 1.0173L1 17.8889zm2.303-5.0667l.6324.4034a.75.75 0 00.0653-.6786l-.6976.2752zM6.7577 16.2l.3942-.6381a.75.75 0 00-.6885-.0517l.2943.6898zm9.4924 9.3c0 5.6643 4.6129 10.25 10.2956 10.25v-1.5c-4.8611 0-8.7956-3.9209-8.7956-8.75h-1.5zm20.5912 0c0-5.6643-4.6129-10.25-10.2956-10.25v1.5c4.861 0 8.7956 3.9209 8.7956 8.75h1.5zM26.5456 15.25c-5.6827 0-10.2956 4.5857-10.2956 10.25h1.5c0-4.8291 3.9345-8.75 8.7956-8.75v-1.5zM38 35l.6945-.2831-.0001-.0002-.0002-.0007a16.1599 16.1599 0 01-.0216-.0528l-.0621-.1515a165.7897 165.7897 0 00-.9553-2.2765c-.5457-1.2722-1.2083-2.7641-1.5652-3.3335l-1.271.7966c.2797.4462.8898 1.8043 1.4577 3.1282a162.0785 162.0785 0 01.9463 2.2553c.0266.0646.0472.1151.0612.1493l.0159.0389.0041.0099.001.0024.0002.0006v.0001L38 35zm-1.8462-5.429c.453-1.1688.6874-2.8002.6874-4.071h-1.5c0 1.1388-.2169 2.5767-.586 3.529l1.3986.542zm-9.6082 6.179c2.1099 0 4.021-1.0916 5.4899-2.0151l-.7984-1.2698c-1.478.9292-3.0581 1.7849-4.6915 1.7849v1.5zm4.7919-1.9621c1.0101.4387 2.6501.9261 3.9979 1.2962a92.8354 92.8354 0 002.2902.5965c.0635.0157.113.0277.1467.0359l.0386.0094a.3566.3566 0 00.0101.0024l.0027.0007.0007.0001.0002.0001L38 35l.1753-.7292h-.0001l-.0005-.0002a.046.046 0 00-.0022-.0005l-.0091-.0022-.0367-.0089-.1426-.0349a91.663 91.663 0 01-2.2515-.5864c-1.3567-.3726-2.8986-.8352-3.7976-1.2256l-.5975 1.3758zM25.75 23.5v7h1.5v-7h-1.5zm.5-3a.25.25 0 01.25-.25v1.5c.6904 0 1.25-.5596 1.25-1.25h-1.5zm.25-.25a.25.25 0 01.25.25h-1.5c0 .6904.5596 1.25 1.25 1.25v-1.5zm.25.25a.25.25 0 01-.25.25v-1.5c-.6904 0-1.25.5596-1.25 1.25h1.5zm-.25.25a.25.25 0 01-.25-.25h1.5c0-.6904-.5596-1.25-1.25-1.25v1.5zM9.75 6.5346c0-.661.2236-1.0867.5019-1.3515.2891-.2751.6896-.4261 1.1117-.4329.4237-.0068.8258.1327 1.1118.382.2723.2374.4777.606.4777 1.1579h1.5c0-.9714-.3825-1.7572-.992-2.2886-.5958-.5193-1.3695-.7631-2.1215-.751-.7538.012-1.529.2818-2.1218.846C8.6143 4.671 8.25 5.503 8.25 6.5347h1.5zm3.2031-.2445c0 .1597.0112.3098-.1019.57-.1221.281-.4144.735-1.1393 1.3632l.9824 1.1335c.8377-.726 1.2954-1.3529 1.5326-1.8987.2463-.5666.2262-.9894.2262-1.168h-1.5zm-1.2412 1.9332a2.6703 2.6703 0 01-.1429.1131c-.0535.0402-.1298.0967-.2032.1568-.1596.1307-.3376.3033-.4905.5607-.295.4966-.4222 1.1841-.4222 2.2361h1.5c0-.9792.1288-1.3302.2118-1.47.0361-.0608.0776-.106.1512-.1662.0433-.0354.087-.0678.155-.119a4.0985 4.0985 0 00.2232-.178l-.9824-1.1335zm-.7588 5.5667a.25.25 0 01.25-.25v1.5c.6904 0 1.25-.5596 1.25-1.25h-1.5zm.25-.25a.25.25 0 01.25.25h-1.5c0 .6904.5597 1.25 1.25 1.25v-1.5zm.25.25a.25.25 0 01-.25.25v-1.5c-.6903 0-1.25.5597-1.25 1.25h1.5zm-.25.25a.25.25 0 01-.25-.25h1.5c0-.6903-.5596-1.25-1.25-1.25v1.5zM19.25 9.4444c0 4.2338-3.5149 7.6945-7.8865 7.6945v1.5c5.168 0 9.3865-4.1007 9.3865-9.1945h-1.5zm-15.773 0c0-4.2337 3.515-7.6944 7.8865-7.6944V.25c-5.168 0-9.3864 4.1007-9.3864 9.1944h1.5zM11.3636 1.75c4.3716 0 7.8865 3.4607 7.8865 7.6944h1.5C20.75 4.3507 16.5315.25 11.3635.25v1.5zM1 17.8889l.6928.2873v-.0001l.0002-.0005.001-.0022a1.4025 1.4025 0 00.0035-.0087l.0144-.0345c.0127-.0304.0313-.0752.0554-.1326a143.0062 143.0062 0 01.8556-2.0034c.5151-1.1798 1.064-2.3791 1.3125-2.7686l-1.2646-.8068c-.3275.5134-.9302 1.8473-1.4226 2.9752a144.0367 144.0367 0 00-.8648 2.0248l-.0562.1348a14.9566 14.9566 0 00-.0148.0355l-.0038.0092a.056.056 0 00-.0013.003v.0002L1 17.8889zm3.0007-5.3419c-.3286-.8331-.5236-2.099-.5236-3.1026h-1.5c0 1.1383.2132 2.6007.6283 3.653l1.3953-.5504zm7.3628 4.5919c-1.459 0-2.875-.7514-4.2117-1.577l-.7883 1.2762c1.3295.8212 3.0723 1.8008 5 1.8008v-1.5zm-4.9002-1.6287c-.8086.345-2.1996.7552-3.4276 1.0865a82.9494 82.9494 0 01-2.1643.5518l-.033.0079-.0083.002-.002.0004-.0004.0002H.8276L1 17.8889l.1725.7299.0002-.0001.0006-.0001.0025-.0006.0091-.0022.035-.0083.133-.032a84.705 84.705 0 002.0736-.5306c1.219-.3289 2.7069-.7631 3.6255-1.1551l-.5887-1.3796z" fill="#FCFDFC"/>
</svg>
