<svg width="48" height="48" viewBox="0 0 48 48" fill="none" xmlns="http://www.w3.org/2000/svg">
<path fill-rule="evenodd" clip-rule="evenodd" d="M13.1389 7.54568C13.1389 6.81747 13.7362 6.25 14.4445 6.25H44.4445C45.1528 6.25 45.75 6.81747 45.75 7.54568V26.0988C45.75 26.827 45.1528 27.3944 44.4445 27.3944H15.5614L20.7995 32.3094L24.8606 28.4989C25.1492 28.2281 25.5984 28.2281 25.887 28.4989L32.291 34.5078C32.4421 34.6496 32.5278 34.8475 32.5278 35.0547C32.5278 35.2619 32.4421 35.4599 32.291 35.6017C31.9362 35.9346 31.562 36.3266 31.1406 36.7681C30.8471 37.0756 30.5307 37.4071 30.182 37.7593C29.3626 38.587 28.4187 39.4698 27.3631 40.1914C26.3069 40.9134 25.1099 41.4941 23.7834 41.6841C22.443 41.8761 21.0174 41.6619 19.5329 40.8663C16.2545 39.1092 12.5388 36.273 9.41276 33.2316C6.32504 30.2275 3.71743 26.9317 2.72787 24.1977C2.20476 23.1882 2.12961 22.1971 2.41236 21.2525C2.69069 20.3227 3.29814 19.4951 4.02599 18.7553C5.1617 17.6009 6.74899 16.5135 8.23956 15.4924C8.63292 15.2229 9.01955 14.958 9.38936 14.6978C9.69807 14.4805 10.1201 14.5266 10.3747 14.8053L13.1389 17.8311V7.54568ZM14.6389 19.473L15.8641 20.8142C16.1408 21.1171 16.1228 21.5862 15.8235 21.867L14.7222 22.9003V24.5845L24.5 14.7153L14.6389 8.55167V19.473ZM16.1864 7.75H42.7513L29.7148 16.2059L16.1864 7.75ZM44.25 8.56576V24.782L34.8899 14.6371L44.25 8.56576ZM33.6131 15.4652L30.1304 17.7243C29.8859 17.8828 29.5718 17.8855 29.3247 17.731L25.804 15.5304L15.536 25.8944H43.2355L33.6131 15.4652ZM13.2222 25.1996V24.3078L12.747 24.7537L13.2222 25.1996ZM3.84936 21.6827C3.67908 22.2515 3.71064 22.8527 4.07814 23.5427C4.09553 23.5754 4.11047 23.6093 4.12286 23.6441C4.97829 26.0507 7.38962 29.1705 10.4588 32.1565C13.5089 35.1241 17.1134 37.8676 20.2415 39.5442C21.4533 40.1937 22.5572 40.3444 23.5707 40.1993C24.598 40.0521 25.5792 39.5938 26.5166 38.9531C26.9186 38.6783 27.3072 38.3737 27.6827 38.052L24.0606 34.5318C23.7636 34.2431 23.7568 33.7683 24.0455 33.4712C24.3342 33.1742 24.809 33.1674 25.1061 33.4561L28.7862 37.0328C28.8974 36.9235 29.0074 36.8137 29.116 36.704C29.4159 36.4011 29.7155 36.0877 30.0062 35.7836C30.2437 35.5352 30.4751 35.2931 30.6959 35.0681L25.3738 30.0743L21.3127 33.8848C21.0241 34.1556 20.5749 34.1556 20.2863 33.8848L11.1377 25.3006C10.9866 25.1589 10.9009 24.9609 10.9009 24.7537C10.9009 24.5465 10.9866 24.3486 11.1377 24.2068L14.2575 21.2795L9.71063 16.3023C9.47739 16.4636 9.2441 16.6236 9.01212 16.7827C8.57059 17.0855 8.13377 17.3851 7.71096 17.6842L10.7177 20.6122C11.0145 20.9012 11.0208 21.376 10.7318 21.6727C10.4428 21.9695 9.96795 21.9758 9.6712 21.6868L6.48816 18.5871C5.97519 18.9877 5.50358 19.3923 5.09525 19.8073C4.4507 20.4624 4.02875 21.0834 3.84936 21.6827Z" fill="#FCFDFC"/>
</svg>
