<svg width="20" height="20" fill="none" xmlns="http://www.w3.org/2000/svg">
  <path d="M2.3633 14.3714l.5755.1696a.6.6 0 00-.071-.4943l-.5045.3247zM1 19l-.5756-.1695a.6001.6001 0 00.737.7474L1 19zm5.0353-1.4061l.2585-.5415a.5998.5998 0 00-.42-.0364l.1615.5779zM6.8443 4l.4483-.3988a.6.6 0 00-.7998-.0875L6.8443 4zm2.289 2.573l.4163.4321a.6.6 0 00.032-.8309l-.4483.3988zm-1.526 1.4703l-.4163-.432a.6.6 0 000 .8641l.4163-.432zm3.8149 3.6758l-.4163.4321a.6.6 0 00.8326 0l-.4163-.4321zm1.9074-1.8379l.4163-.432a.6.6 0 00-.8326 0l.4163.432zM16 12.4542l.4163.4321a.6.6 0 000-.8641l-.4163.432zm-4.9582 2.2055l-.2893.5256.2893-.5256zm-6.8683-6.984l.567-.1962a.6012.6012 0 00-.0343-.08l-.5327.2763zm2.4022-.7514a.6.6 0 10.8486-.8486l-.8486.8486zm6.8486 4.6514a.6001.6001 0 00-.8486.8486l.8486-.8486zM18.4 9.7429c0 4.4809-3.7443 8.1428-8.4 8.1428v1.2c5.2854 0 9.6-4.1666 9.6-9.3428h-1.2zm-16.8 0C1.6 5.2619 5.3443 1.6 10 1.6V.4C4.7146.4.4 4.5667.4 9.7429h1.2zM10 1.6c4.6557 0 8.4 3.662 8.4 8.1429h1.2C19.6 4.5667 15.2854.4 10 .4v1.2zM2.8678 14.0467C2.0638 12.7975 1.6 11.3231 1.6 9.7429H.4c0 1.8192.5349 3.5178 1.4588 4.9533l1.009-.6495zm-1.08.1552L.4243 18.8305l1.1511.339L2.939 14.541l-1.1512-.3391zM10 17.8857c-1.332 0-2.5895-.3001-3.7062-.8333l-.517 1.0829c1.2755.609 2.7095.9504 4.2232.9504v-1.2zm-8.8386 1.6922l5.0352-1.4062-.3227-1.1557-5.0353 1.4061.3228 1.1558zM6.396 4.3988l2.289 2.573.8965-.7976-2.289-2.573-.8965.7976zM8.717 6.141L7.191 7.6113l.8326.8641 1.526-1.4703-.8326-.8641zM7.191 8.4754l3.8149 3.6758.8326-.8642-3.8149-3.6757-.8326.8641zm4.6475 3.6758l1.9074-1.8379-.8326-.8642-1.9074 1.8379.8326.8642zm1.0748-1.8379l2.6704 2.573.8326-.8641-2.6704-2.573-.8326.8641zm2.6704 1.7089c-.2606.2511-.5993.6324-.9033.9478-.3278.34-.6738.6687-1.0425.9275-.3684.2587-.735.4298-1.1031.4839-.3562.0524-.7518.0013-1.2037-.2474l-.5786 1.0513c.6724.3701 1.3316.4753 1.9569.3833.6133-.0902 1.1551-.364 1.6179-.6889.4626-.3247.8711-.7181 1.217-1.0769.3697-.3834.624-.6775.872-.9165l-.8326-.8641zm-4.2526 2.1118c-1.2752-.7018-2.7571-1.8584-4.0149-3.1151-1.272-1.2708-2.24-2.57-2.5757-3.5394l-1.134.3925c.4279 1.236 1.5582 2.6937 2.8616 3.9959 1.3175 1.3163 2.8881 2.549 4.2844 3.3174l.5786-1.0513zm-6.625-6.7345c-.1217-.2347-.1265-.4205-.0755-.5954.0575-.1974.2006-.4251.4534-.689.5223-.5452 1.3023-1.0438 2.1117-1.6288l-.7029-.9726c-.7164.5178-1.653 1.1218-2.2753 1.7713-.3195.3334-.6056.726-.739 1.1833-.1399.4799-.0971.9833.1624 1.4837l1.0653-.5525zm10.2182 5.6762l-1.5-1.5-.8486.8486 1.5 1.5.8486-.8486zM5.0757 5.4243l.75.75.8486-.8486-.75-.75-.8486.8486zm.75.75l.75.75.8486-.8486-.75-.75-.8486.8486z" fill="#00499A"/>
</svg>
