<svg width="44" height="36" fill="none" xmlns="http://www.w3.org/2000/svg">
  <path d="M7.821 9.3111l.5537-.5058a.75.75 0 00-.9854-.1075l.4317.6133zm5.4893 6.0089l.5132.547a.75.75 0 00.0406-1.0528l-.5538.5058zm-3.6594 3.4337l-.5132-.5469a.75.75 0 000 1.0938l.5132-.5469zm9.1486 8.5842l-.5132.5469a.75.75 0 001.0264 0l-.5132-.5469zm4.5743-4.2921l.5132-.5469a.75.75 0 00-1.0264 0l.5132.5469zm6.404 6.0089l.5132.547a.7502.7502 0 000-1.0939l-.5132.5469zm-11.8906 5.1505l-.3543.6611.3543-.6611zM1.4162 17.8953l.7066-.2512a.756.756 0 00-.0447-.1014l-.662.3526zm6.255-2.2085a.75.75 0 001.0606-.0141.75.75 0 00-.0141-1.0605l-1.0465 1.0746zM23.106 27.4561a.75.75 0 10-1.0454 1.0757l1.0454-1.0757zM12.842.9097l-.636-.3975-.7951 1.272.636.3975.7951-1.272zM27.7222 11.095l-.3975.6359a.75.75 0 00.8057-.0067l-.4082-.6292zm15.1304-8.9202l.6292-.4081-.8163-1.2585-.6292.4082.8163 1.2584zm-18.946 7.252A.75.75 0 0022.841 8.371l1.0656 1.0557zM11.745 19.5708a.75.75 0 101.0656 1.0557l-1.0656-1.0557zm30.1482 1.0364a.75.75 0 001.0598.0427.75.75 0 00.0427-1.0598l-1.1025 1.0171zm-9.2309-12.217a.75.75 0 10-1.1024 1.0172l1.1024-1.0171zM7.2673 9.817l5.4893 6.0089 1.1075-1.0117-5.4894-6.009L7.2673 9.817zm5.5298 4.9561l-3.6594 3.4337 1.0264 1.0938 3.6594-3.4336-1.0264-1.0939zm-3.6594 4.5275l9.1486 8.5842 1.0264-1.0938-9.1486-8.5842-1.0264 1.0938zm10.175 8.5842l4.5743-4.2921-1.0264-1.0938-4.5743 4.2921 1.0264 1.0938zm3.5479-4.2921l6.404 6.009 1.0264-1.0939-6.404-6.0089-1.0264 1.0938zm6.404 4.9151c-.6179.5798-1.3824 1.4223-2.1486 2.1962-.7962.8042-1.6614 1.6079-2.5994 2.2491-.9374.6407-1.9186 1.099-2.9459 1.2462-1.0135.1451-2.1174-.0056-3.3292-.6551l-.7086 1.3221c1.4845.7956 2.9101 1.0098 4.2504.8178 1.3266-.19 2.5236-.7707 3.5798-1.4927 1.0556-.7216 1.9995-1.6044 2.8189-2.4321.8494-.858 1.507-1.5928 2.109-2.1576l-1.0264-1.0939zm-11.0231 5.0364c-3.1281-1.6766-6.7326-4.4201-9.7827-7.3877-3.0692-2.986-5.4805-6.1058-6.336-8.5124l-1.4133.5024c.9753 2.7439 3.5962 6.0622 6.7033 9.0851 3.126 3.0414 6.8417 5.8776 10.1201 7.6347l.7086-1.3221zM2.0781 17.5427c-.3675-.69-.399-1.2912-.2288-1.86.1794-.5993.6014-1.2203 1.246-1.8754 1.3093-1.3309 3.2693-2.5541 5.1573-3.8828l-.8632-1.2267c-1.7712 1.2465-3.928 2.5985-5.3634 4.0575-.7279.7398-1.3353 1.5674-1.6137 2.4972-.2874.9602-.205 1.9686.3419 2.9954l1.324-.7052zm1.9959-5.3589l3.5972 3.503 1.0465-1.0746-3.5972-3.5031-1.0465 1.0747zm23.2309 19.3531l-4.1989-4.0808-1.0454 1.0757 4.1989 4.0808 1.0454-1.0757zM12.4444 1.75h30V.25h-30v1.5zM42.25 1.5457v18.5531h1.5V1.5457h-1.5zm0 18.5531c0-.1255.0998-.2044.1944-.2044v1.5c.7084 0 1.3056-.5674 1.3056-1.2956h-1.5zM42.4444 1.75c-.0946 0-.1944-.0789-.1944-.2043h1.5C43.75.8175 43.1527.25 42.4444.25v1.5zm-30-1.5c-.7083 0-1.3055.5675-1.3055 1.2957h1.5c0 .1254-.0998.2043-.1945.2043V.25zm-.3975 1.9317l15.2778 9.5493.795-1.2719L12.842.9097l-.7951 1.272zm16.0835 9.5426l14.7222-9.5494-.8163-1.2584-14.7222 9.5493.8163 1.2585zM22.841 8.3711L11.745 19.571l1.0656 1.0557 11.096-11.1998-1.0656-1.0557zm20.1547 11.2191L32.6623 8.3904l-1.1024 1.0171 10.3333 11.1998 1.1025-1.0171zM11.1389 1.5457v12.2987h1.5V1.5457h-1.5zm.8333 18.3487H11.5v1.5h.4722v-1.5zm.75.75v-4.1555h-1.5v4.1555h1.5zm29.7222-.75H11.9722v1.5h30.4722v-1.5z" fill="#FCFDFC"/>
</svg>
