<svg width="24" height="24" viewBox="0 0 24 24" fill="none" xmlns="http://www.w3.org/2000/svg">
<path fill-rule="evenodd" clip-rule="evenodd" d="M9.50014 2.5C8.67171 2.5 8.00014 3.17157 8.00014 4C8.00014 4.82843 8.67171 5.5 9.50014 5.5C10.3286 5.5 11.0001 4.82843 11.0001 4C11.0001 3.17157 10.3286 2.5 9.50014 2.5ZM7.00014 4C7.00014 2.61929 8.11942 1.5 9.50014 1.5C10.8808 1.5 12.0001 2.61929 12.0001 4C12.0001 5.38071 10.8808 6.5 9.50014 6.5C8.11942 6.5 7.00014 5.38071 7.00014 4ZM7.00014 8.5C7.00014 7.67157 7.67171 7 8.50014 7H10.5001C11.3286 7 12.0001 7.67157 12.0001 8.5V9.38197L12.3623 10.1064L14.6858 11.0358C14.9422 11.1383 15.0669 11.4293 14.9644 11.6857C14.8618 11.9421 14.5708 12.0668 14.3144 11.9642L12.0001 11.0385V11.8527L13.2482 12.5659C13.488 12.7029 13.5713 13.0083 13.4343 13.2481C13.2973 13.4878 12.9918 13.5711 12.7521 13.4341L11.9274 12.9629C11.7999 13.3563 11.5142 13.6785 11.1454 13.8545L11.9745 16.3419C11.9915 16.3929 12.0001 16.4463 12.0001 16.5V21.5C12.0001 21.7761 11.7763 22 11.5001 22C11.224 22 11.0001 21.7761 11.0001 21.5V16.5811L10.1398 14H9.00014V17C9.00014 17.0537 8.99147 17.1071 8.97448 17.1581L7.47448 21.6581C7.38715 21.9201 7.10399 22.0617 6.84202 21.9743C6.58005 21.887 6.43847 21.6039 6.52579 21.3419L8.00014 16.9189V13.9146C7.41754 13.7087 7.00014 13.1531 7.00014 12.5V8.5ZM11.0001 11.2813V9.51083C11 9.50386 11 9.49689 11.0001 9.48994V8.5C11.0001 8.22386 10.7763 8 10.5001 8H9.50703L9.95431 10.6837L11.0001 11.2813ZM8.50006 8C8.50009 8.02711 8.50234 8.05458 8.50694 8.0822L9.00694 11.0822C9.03163 11.2304 9.12164 11.3596 9.25207 11.4341L11.0001 12.433V12.5C11.0001 12.7761 10.7763 13 10.5001 13H8.50014C8.22399 13 8.00014 12.7761 8.00014 12.5V8.5C8.00014 8.22388 8.22395 8.00004 8.50006 8ZM13.7648 13.5588C14.0085 13.4289 14.3114 13.5211 14.4413 13.7647L18.4413 21.2647C18.5713 21.5084 18.4791 21.8112 18.2354 21.9412C17.9918 22.0711 17.6889 21.9789 17.559 21.7353L13.559 14.2353C13.429 13.9916 13.5212 13.6888 13.7648 13.5588Z" fill="#2D3436"/>
</svg>
