<svg width="24" height="24" viewBox="0 0 24 24" fill="none" xmlns="http://www.w3.org/2000/svg">
<path d="M21 13C21.5523 13 22 12.5523 22 12C22 11.4477 21.5523 11 21 11L21 13ZM1.29289 11.2929C0.902369 11.6834 0.902369 12.3166 1.29289 12.7071L7.65686 19.0711C8.04738 19.4616 8.68055 19.4616 9.07107 19.0711C9.4616 18.6806 9.4616 18.0474 9.07107 17.6569L3.41421 12L9.07106 6.34315C9.46159 5.95263 9.46159 5.31946 9.07106 4.92894C8.68054 4.53842 8.04737 4.53842 7.65685 4.92894L1.29289 11.2929ZM21 11L2 11L2 13L21 13L21 11Z" fill="#FCFDFC"/>
</svg>
