<svg width="48" height="48" viewBox="0 0 48 48" fill="none" xmlns="http://www.w3.org/2000/svg">
<path d="M6 23.8889L5.30723 23.6015C5.19934 23.8616 5.24624 24.1603 5.42868 24.3748C5.61111 24.5893 5.89834 24.6835 6.17239 24.6188L6 23.8889ZM8.30306 18.8222L8.93535 19.2256C9.06463 19.023 9.08895 18.7706 9.00074 18.547L8.30306 18.8222ZM11.7577 22.2L12.1518 21.5619C11.9443 21.4338 11.6876 21.4145 11.4633 21.5102L11.7577 22.2ZM24.25 15.4444C24.25 19.6782 20.7351 23.1389 16.3635 23.1389V24.6389C21.5315 24.6389 25.75 20.5382 25.75 15.4444H24.25ZM8.47705 15.4444C8.47705 11.2107 11.992 7.75 16.3635 7.75V6.25C11.1955 6.25 6.97705 10.3507 6.97705 15.4444H8.47705ZM16.3635 7.75C20.7351 7.75 24.25 11.2107 24.25 15.4444H25.75C25.75 10.3507 21.5315 6.25 16.3635 6.25V7.75ZM6 23.8889C6.69277 24.1762 6.69277 24.1762 6.69278 24.1762C6.69279 24.1762 6.6928 24.1762 6.69283 24.1761C6.69287 24.176 6.69294 24.1758 6.69304 24.1756C6.69323 24.1751 6.69353 24.1744 6.69393 24.1734C6.69473 24.1715 6.69594 24.1686 6.69755 24.1647C6.70077 24.157 6.70559 24.1454 6.71191 24.1302C6.72457 24.0998 6.74325 24.055 6.76727 23.9976C6.81531 23.8827 6.88466 23.7174 6.96971 23.5161C7.13989 23.1134 7.37255 22.5676 7.6229 21.9942C8.13801 20.8144 8.68689 19.6151 8.93535 19.2256L7.67078 18.4188C7.3433 18.9322 6.74064 20.2661 6.24821 21.394C5.99478 21.9744 5.75967 22.526 5.58801 22.9322C5.50214 23.1354 5.43206 23.3025 5.3834 23.4188C5.35907 23.477 5.34009 23.5226 5.32716 23.5536C5.3207 23.5691 5.31574 23.581 5.31239 23.5891C5.31072 23.5931 5.30944 23.5962 5.30858 23.5983C5.30815 23.5993 5.30782 23.6001 5.30759 23.6007C5.30748 23.6009 5.30739 23.6011 5.30733 23.6013C5.3073 23.6014 5.30728 23.6014 5.30726 23.6015C5.30724 23.6015 5.30723 23.6015 6 23.8889ZM9.00074 18.547C8.67209 17.7139 8.47705 16.448 8.47705 15.4444H6.97705C6.97705 16.5827 7.19027 18.0451 7.60538 19.0974L9.00074 18.547ZM16.3635 23.1389C14.9044 23.1389 13.4885 22.3875 12.1518 21.5619L11.3635 22.8381C12.693 23.6593 14.4358 24.6389 16.3635 24.6389V23.1389ZM11.4633 21.5102C10.6547 21.8552 9.26375 22.2654 8.03574 22.5967C7.42993 22.7602 6.87708 22.9009 6.4756 23.0008C6.27497 23.0508 6.11241 23.0904 6.00026 23.1176C5.94419 23.1311 5.90073 23.1415 5.87144 23.1485C5.85679 23.152 5.84569 23.1547 5.83832 23.1564C5.83463 23.1573 5.83188 23.158 5.83009 23.1584C5.82919 23.1586 5.82854 23.1588 5.82812 23.1588C5.82791 23.1589 5.82777 23.1589 5.82768 23.159C5.82764 23.159 5.82762 23.159 5.8276 23.159C5.8276 23.159 5.82761 23.159 6 23.8889C6.17239 24.6188 6.17244 24.6188 6.17249 24.6188C6.17253 24.6188 6.17261 24.6188 6.17269 24.6187C6.17285 24.6187 6.17307 24.6186 6.17335 24.6186C6.17391 24.6184 6.17472 24.6183 6.17577 24.618C6.17786 24.6175 6.18092 24.6168 6.18491 24.6158C6.1929 24.6139 6.20464 24.6112 6.21993 24.6075C6.25052 24.6002 6.29534 24.5894 6.35285 24.5755C6.46786 24.5477 6.63366 24.5073 6.83787 24.4564C7.24608 24.3548 7.80878 24.2116 8.42647 24.0449C9.64548 23.716 11.1334 23.2818 12.052 22.8898L11.4633 21.5102Z" fill="#FCFDFC"/>
<path d="M43 41L43.6945 40.717C43.8007 40.9775 43.7522 41.2755 43.5688 41.4888C43.3855 41.7022 43.0982 41.795 42.8247 41.7292L43 41ZM40.4545 35.3L39.819 35.6983C39.6933 35.4978 39.6697 35.2497 39.7552 35.029L40.4545 35.3ZM36.6363 39.1L36.2371 38.4651C36.4467 38.3333 36.7079 38.3134 36.935 38.4121L36.6363 39.1ZM22.75 31.5C22.75 36.3291 26.6845 40.25 31.5456 40.25V41.75C25.8629 41.75 21.25 37.1643 21.25 31.5H22.75ZM40.3412 31.5C40.3412 26.6709 36.4066 22.75 31.5456 22.75V21.25C37.2283 21.25 41.8412 25.8357 41.8412 31.5H40.3412ZM31.5456 22.75C26.6845 22.75 22.75 26.6709 22.75 31.5H21.25C21.25 25.8357 25.8629 21.25 31.5456 21.25V22.75ZM43 41C42.3055 41.283 42.3055 41.283 42.3054 41.283C42.3054 41.283 42.3054 41.2829 42.3054 41.2829C42.3053 41.2827 42.3053 41.2826 42.3052 41.2823C42.3049 41.2818 42.3046 41.2809 42.3042 41.2799C42.3033 41.2777 42.3019 41.2744 42.3001 41.27C42.2966 41.2613 42.2912 41.2482 42.2842 41.2311C42.2702 41.1969 42.2496 41.1464 42.223 41.0818C42.1699 40.9524 42.0932 40.7663 41.9991 40.5398C41.8109 40.0865 41.5536 39.472 41.2767 38.8265C40.7088 37.5026 40.0987 36.1445 39.819 35.6983L41.09 34.9017C41.4469 35.4711 42.1095 36.963 42.6552 38.2352C42.9351 38.8877 43.1948 39.5079 43.3845 39.9646C43.4793 40.1931 43.5567 40.3809 43.6105 40.5117C43.6373 40.5771 43.6583 40.6283 43.6726 40.6632C43.6797 40.6806 43.6852 40.694 43.6889 40.703C43.6907 40.7076 43.6921 40.711 43.6931 40.7133C43.6935 40.7145 43.6939 40.7154 43.6942 40.716C43.6943 40.7163 43.6944 40.7165 43.6944 40.7167C43.6945 40.7168 43.6945 40.7168 43.6945 40.7169C43.6945 40.7169 43.6945 40.717 43 41ZM39.7552 35.029C40.1243 34.0767 40.3412 32.6388 40.3412 31.5H41.8412C41.8412 32.7708 41.6068 34.4022 41.1538 35.571L39.7552 35.029ZM31.5456 40.25C33.179 40.25 34.7591 39.3943 36.2371 38.4651L37.0355 39.7349C35.5666 40.6584 33.6555 41.75 31.5456 41.75V40.25ZM36.935 38.4121C37.834 38.8025 39.3759 39.2651 40.7326 39.6377C41.4028 39.8217 42.0143 39.9802 42.4583 40.0927C42.6802 40.1489 42.86 40.1936 42.9841 40.2241C43.0462 40.2394 43.0943 40.2511 43.1267 40.259C43.1429 40.2629 43.1552 40.2659 43.1634 40.2679C43.1675 40.2689 43.1705 40.2696 43.1725 40.2701C43.1735 40.2703 43.1743 40.2705 43.1747 40.2706C43.1749 40.2707 43.1751 40.2707 43.1752 40.2708C43.1753 40.2708 43.1753 40.2708 43.1753 40.2708C43.1753 40.2708 43.1753 40.2708 43 41C42.8247 41.7292 42.8247 41.7292 42.8246 41.7292C42.8245 41.7292 42.8245 41.7292 42.8244 41.7291C42.8242 41.7291 42.824 41.729 42.8237 41.729C42.823 41.7288 42.8222 41.7286 42.821 41.7283C42.8187 41.7278 42.8153 41.727 42.8109 41.7259C42.8021 41.7238 42.7892 41.7206 42.7723 41.7165C42.7386 41.7083 42.6891 41.6963 42.6256 41.6806C42.4986 41.6494 42.3155 41.6039 42.09 41.5468C41.6391 41.4325 41.0176 41.2715 40.3354 41.0841C38.9876 40.714 37.3476 40.2266 36.3375 39.7879L36.935 38.4121Z" fill="#FCFDFC"/>
<path d="M30.5 29.5C30.5 28.9477 30.9477 28.5 31.5 28.5C32.0523 28.5 32.5 28.9477 32.5 29.5V36.5C32.5 37.0523 32.0523 37.5 31.5 37.5C30.9477 37.5 30.5 37.0523 30.5 36.5V29.5Z" fill="#FCFDFC"/>
<path d="M32.5 26.5C32.5 27.0523 32.0523 27.5 31.5 27.5C30.9477 27.5 30.5 27.0523 30.5 26.5C30.5 25.9477 30.9477 25.5 31.5 25.5C32.0523 25.5 32.5 25.9477 32.5 26.5Z" fill="#FCFDFC"/>
<path d="M14 12.5829C14 9.19753 19 9.19779 19 12.2445C19 12.5829 19 13.5987 17.4375 14.953C16.9495 15.376 16.5 15.9687 16.5 18" stroke="#FCFDFC" stroke-width="1.5" stroke-linecap="round" stroke-linejoin="round"/>
<circle cx="17" cy="21" r="1" fill="#FCFDFC"/>
</svg>
