<svg width="20" height="22" viewBox="0 0 20 22" fill="none" xmlns="http://www.w3.org/2000/svg">
<path d="M18.281 21.0054C18.6649 21.4025 19.2979 21.4132 19.695 21.0293C20.0921 20.6455 20.1028 20.0124 19.719 19.6153L18.281 21.0054ZM13.2632 8.54992C13.2632 11.8187 10.7101 14.4102 7.63158 14.4102V16.4102C11.8781 16.4102 15.2632 12.8588 15.2632 8.54992H13.2632ZM7.63158 14.4102C4.55303 14.4102 2 11.8187 2 8.54992H0C0 12.8588 3.38509 16.4102 7.63158 16.4102V14.4102ZM2 8.54992C2 5.28117 4.55303 2.68967 7.63158 2.68967V0.689667C3.38509 0.689667 0 4.24105 0 8.54992H2ZM7.63158 2.68967C10.7101 2.68967 13.2632 5.28117 13.2632 8.54992H15.2632C15.2632 4.24105 11.8781 0.689667 7.63158 0.689667V2.68967ZM11.781 14.2812L18.281 21.0054L19.719 19.6153L13.219 12.8912L11.781 14.2812Z" fill="#2D3436"/>
</svg>
