<svg width="20" height="20" fill="none" xmlns="http://www.w3.org/2000/svg">
  <path d="M18.2929 19.7071c.3905.3905 1.0237.3905 1.4142 0 .3905-.3905.3905-1.0237 0-1.4142l-1.4142 1.4142zM13.2632 7.6316c0 3.1102-2.5214 5.6316-5.6316 5.6316v2c4.2148 0 7.6316-3.4168 7.6316-7.6316h-2zm-5.6316 5.6316C4.5213 13.2632 2 10.7418 2 7.6316H0c0 4.2148 3.4168 7.6316 7.6316 7.6316v-2zM2 7.6316C2 4.5213 4.5213 2 7.6316 2V0C3.4168 0 0 3.4168 0 7.6316h2zM7.6316 2c3.1102 0 5.6316 2.5213 5.6316 5.6316h2C15.2632 3.4168 11.8464 0 7.6316 0v2zm4.1613 11.2071l6.5 6.5 1.4142-1.4142-6.5-6.5-1.4142 1.4142z" fill="#2D3436"/>
</svg>
