<svg width="24" height="24" fill="none" xmlns="http://www.w3.org/2000/svg">
  <path d="M3 19.5h-.75a.75.75 0 00.75.75v-.75zm18 0v.75a.75.75 0 00.75-.75H21zm0-15h.75a.75.75 0 00-.75-.75v.75zm-18 0v-.75a.75.75 0 00-.75.75H3zm9.6923 7.5l.3313.6728L14.39 12l-1.3664-.6728-.3313.6728zm-1.3846.6818h-.75v1.2053l1.0813-.5324-.3313-.6729zm0-1.3636l.3313-.6729-1.0813-.5324v1.2053h.75zM3 5.25h18v-1.5H3v1.5zm18 13.5H3v1.5h18v-1.5zm-.75-.6136V19.5h1.5v-.0001-.0001-.0001-.0001-.0002-.0001-.0001-.0002-.0002-.0002-.0002-.0002-.0002-.0002-.0003-.0003-.0002-.0003-.0004-.0003-.0003-.0004-.0003-.0004-.0004-.0004-.0004-.0004-.0005-.0004-.0005-.0005-.0005-.0005-.0005-.0006-.0005-.0006-.0005-.0006-.0006-.0006-.0007-.0006-.0007-.0006-.0007-.0007-.0007-.0007-.0008-.0007-.0008-.0007-.0008-.0008-.0008-.0008-.0009-.0008-.0009-.0008-.0009-.0009-.0009-.0009-.001-.0009-.001-.0009-.001-.001-.001-.0011-.001-.001-.0011-.0011-.001-.0011-.0011-.0012-.0011-.0011-.0012-.0012-.0011-.0012-.0012-.0012-.0013-.0012-.0013-.0012-.0013-.0013-.0013-.0013-.0013-.0013-.0014-.0014-.0013-.0014-.0014-.0014-.0014-.0014-.0015-.0014-.0015-.0015-.0015-.0015-.0015-.0015-.0015-.0016-.0015-.0016-.0016-.0015-.0016-.0017-.0016-.0016-.0017-.0016-.0017-.0017-.0017-.0017-.0017-.0017-.0017-.0018-.0017-.0018-.0018-.0018-.0018-.0018-.0018-.0018-.0019-.0018-.0019-.0019-.0019-.0019-.0019-.0019-.0019-.002-.0019-.002-.002-.0019-.002-.002-.0021-.002-.002-.0021-.002-.0021-.0021-.0021-.0021-.0021-.0021-.0021-.0022-.0021-.0022-.0021-.0022-.0022-.0022-.0022-.0023-.0022-.0022-.0023-.0022-.0023-.0023-.0023-.0023-.0023-.0023-.0024-.0023-.0024-.0023-.0024-.0024-.0024-.0024-.0024-.0024-.0024-.0025-.0024-.0025-.0024-.0025-.0025-.0025-.0025-.0025-.0025-.0026-.0025-.0026-.0025-.0026-.0026-.0026-.0026-.0026-.0026-.0026-.0027-.0026-.0027-.0027-.0026-.0027-.0027-.0027-.0027-.0027-.0028-.0027-.0027-.0028-.0028-.0027-.0028-.0028-.0028-.0028-.0028-.0029-.0028-.0028-.0029-.0029-.0028-.0029-.0029-.0029-.0029-.0029-.0029-.003-.0029-.003-.0029-.003-.0029-.003-.003-.003-.003-.003-.0031-.003-.003-.0031-.003-.0031-.0031-.003-.0031-.0031-.0031-.0032-.0031-.0031-.0031-.0032-.0031-.0032-.0032-.0031-.0032-.0032-.0032-.0032-.0032-.0033-.0032-.0032-.0033-.0032-.0033-.0033-.0033-.0032-.0033-.0033-.0033-.0034-.0033-.0033-.0033-.0034-.0033-.0034-.0034-.0033-.0034-.0034-.0034-.0034-.0034-.0034-.0035-.0034-.0034-.0035-.0035-.0034-.0035-.0035-.0034-.0035-.0035-.0035-.0035-.0036-.0035-.0035-.0036-.0035-.0036-.0035-.0036-.0035-.0036-.0036-.0036-.0036-.0036-.0036-.0036-.0037-.0036-.0036-.0037-.0036-.0037-.0037-.0036-.0037-.0037-.0037-.0037-.0037-.0037-.0037-.0037-.0038-.0037-.0037-.0038-.0038-.0037-.0038-.0038-.0037-.0038-.0038-.0038-.0038-.0038-.0038-.0038-.0039-.0038-.0038-.0039-.0038-.0039-.0039-.0038-.0039-.0039-.0039-.0039-.0038-.004-.0039-.0039-.0039-.0039-.0039-.004-.0039-.004-.0039-.004-.0039-.004-.004-.004-.0039-.004-.004-.004-.004-.004-.0041-.004-.004-.004-.0041-.004-.0041-.004-.0041-.004-.0041-.0041-.0041-.004-.0041-.0041-.0041-.0041-.0041-.0041-.0042-.0041-.0041-.0041-.0042-.0041-.0042-.0041-.0042-.0041-.0042-.0041-.0042-.0042-.0042-.0042-.0042-.0042-.0041-.0043-.0042-.0042-.0042-.0042-.0042-.0043-.0042-.0042-.0043-.0042-.0043-.0042-.0043-.0043-.0042-.0043-.0043-.0043-.0042-.0043-.0043-.0043-.0043-.0043-.0043-.0043-.0043-.0044-.0043-.0043-.0043-.0044-.0043-.0044-.0043-.0044-.0043-.0044-.0043-.0044-.0044-.0043-.0044-.0044-.0044-.0043-.0044-.0044-.0044-.0044-.0044-.0044-.0044-.0044h-1.5zM2.25 4.5v1.3636h1.5V4.5h-1.5zm6.9808 15.75h5.5384v-1.5H9.2308v1.5zm3.1302-8.9228l-1.3846.6818.6626 1.3457 1.3846-.6819-.6626-1.3456zm-.3033 1.3546v-1.3636h-1.5v1.3636h1.5zm-1.0813-.6908l1.3846.6818.6626-1.3456-1.3846-.6819-.6626 1.3457zm4.4274.009c0 1.8344-1.5131 3.3409-3.4038 3.3409v1.5c2.6975 0 4.9038-2.1566 4.9038-4.8409h-1.5zM12 15.3409c-1.8907 0-3.4039-1.5065-3.4039-3.3409h-1.5c0 2.6843 2.2064 4.8409 4.9039 4.8409v-1.5zM8.5961 12c0-1.8344 1.5132-3.341 3.4039-3.341v-1.5c-2.6975 0-4.9039 2.1567-4.9039 4.841h1.5zM12 8.659c1.8907 0 3.4038 1.5066 3.4038 3.341h1.5c0-2.6843-2.2063-4.841-4.9038-4.841v1.5zM20.25 4.5V12h1.5V4.5h-1.5zm0 7.5v6.1364h1.5V12h-1.5zm-16.5 7.5V12h-1.5v7.5h1.5zm0-7.5V5.8636h-1.5V12h1.5z" fill="#FCFDFC"/>
</svg>
