<svg width="27" height="27" fill="none" xmlns="http://www.w3.org/2000/svg">
  <path d="M7.7726 12.641c-.3506-.4267-.9807-.4884-1.4074-.1378-.4268.3506-.4884.9808-.1378 1.4075l1.5452-1.2697zM12.525 20l-.7726.6348a.9997.9997 0 001.6054-.0813L12.525 20zm8.8079-11.4465c.3056-.46.1806-1.0807-.2794-1.3863-.46-.3057-1.0807-.1807-1.3864.2793l1.6658 1.107zM6.2274 13.9107l5.525 6.7241 1.5452-1.2696-5.525-6.7242-1.5452 1.2697zm7.1304 6.6428l7.9751-12-1.6658-1.107-7.975 12 1.6657 1.107zM25 13.5C25 19.8513 19.8513 25 13.5 25v2C20.9558 27 27 20.9558 27 13.5h-2zM13.5 25C7.1487 25 2 19.8513 2 13.5H0C0 20.9558 6.0442 27 13.5 27v-2zM2 13.5C2 7.1487 7.1487 2 13.5 2V0C6.0442 0 0 6.0442 0 13.5h2zM13.5 2C19.8513 2 25 7.1487 25 13.5h2C27 6.0442 20.9558 0 13.5 0v2z" fill="#047753"/>
</svg>
