<svg width="27" height="27" fill="none" xmlns="http://www.w3.org/2000/svg">
  <path d="M19.2071 9.2071c.3905-.3905.3905-1.0237 0-1.4142-.3905-.3905-1.0237-.3905-1.4142 0l1.4142 1.4142zM7.7929 17.793c-.3905.3905-.3905 1.0237 0 1.4142.3905.3905 1.0237.3905 1.4142 0L7.793 17.7929zm1.4142-10c-.3905-.3905-1.0237-.3905-1.4142 0-.3905.3905-.3905 1.0237 0 1.4142L9.207 7.793zM17.793 19.207c.3905.3905 1.0237.3905 1.4142 0 .3905-.3905.3905-1.0237 0-1.4142l-1.4142 1.4142zm0-11.4142l-5 5 1.4142 1.4142 5-5-1.4142-1.4142zm-5 5l-5 5 1.4142 1.4142 5-5-1.4142-1.4142zm-5-3.5858l5 5 1.4142-1.4142-5-5L7.793 9.207zm5 5l5 5 1.4142-1.4142-5-5-1.4142 1.4142zM25 13.5C25 19.8513 19.8513 25 13.5 25v2C20.9558 27 27 20.9558 27 13.5h-2zM13.5 25C7.1487 25 2 19.8513 2 13.5H0C0 20.9558 6.0442 27 13.5 27v-2zM2 13.5C2 7.1487 7.1487 2 13.5 2V0C6.0442 0 0 6.0442 0 13.5h2zM13.5 2C19.8513 2 25 7.1487 25 13.5h2C27 6.0442 20.9558 0 13.5 0v2z" fill="#B90000"/>
</svg>
