<svg width="24" height="24" viewBox="0 0 24 24" fill="none" xmlns="http://www.w3.org/2000/svg">
<path d="M4.36329 16.3714C3.49934 15.0291 3 13.4426 3 11.7429C3 6.91431 7.02944 3 12 3C16.9706 3 21 6.91431 21 11.7429C21 16.5714 16.9706 20.4857 12 20.4857C10.5772 20.4857 9.23144 20.165 8.03527 19.5939M4.36329 16.3714L3 21L8.03527 19.5939M4.36329 16.3714C3 21 3 21 8.03527 19.5939" stroke="#00499A" stroke-width="1.5" stroke-linecap="square" stroke-linejoin="round"/>
<path d="M8.84427 6L9.21785 5.66767C9.04731 5.47597 8.75935 5.44447 8.5514 5.59475L8.84427 6ZM11.1333 8.57303L11.4802 8.93308C11.6735 8.74685 11.6852 8.44123 11.5068 8.2407L11.1333 8.57303ZM9.60733 10.0433L9.2604 9.68327C9.16259 9.77752 9.10733 9.9075 9.10733 10.0433C9.10733 10.1792 9.16259 10.3091 9.2604 10.4034L9.60733 10.0433ZM13.4222 13.7191L13.0752 14.0791C13.2689 14.2657 13.5755 14.2657 13.7691 14.0791L13.4222 13.7191ZM15.3296 11.8812L15.6765 11.5212C15.4829 11.3346 15.1763 11.3346 14.9827 11.5212L15.3296 11.8812ZM18 14.4542L18.3469 14.8143C18.4447 14.72 18.5 14.5901 18.5 14.4542C18.5 14.3184 18.4447 14.1884 18.3469 14.0942L18 14.4542ZM13.0418 16.6597L12.8007 17.0977L13.0418 16.6597ZM6.17353 9.67575L6.64603 9.5122C6.63811 9.48932 6.62854 9.46705 6.61739 9.44555L6.17353 9.67575ZM8.64644 8.85355C8.8417 9.04882 9.15829 9.04882 9.35355 8.85355C9.54881 8.65829 9.54881 8.34171 9.35355 8.14645L8.64644 8.85355ZM15.3535 13.6464C15.1583 13.4512 14.8417 13.4512 14.6464 13.6464C14.4512 13.8417 14.4512 14.1583 14.6464 14.3536L15.3535 13.6464ZM8.4707 6.33233L10.7597 8.90536L11.5068 8.2407L9.21785 5.66767L8.4707 6.33233ZM10.7863 8.21297L9.2604 9.68327L9.95425 10.4034L11.4802 8.93308L10.7863 8.21297ZM9.2604 10.4034L13.0752 14.0791L13.7691 13.359L9.95425 9.68327L9.2604 10.4034ZM13.7691 14.0791L15.6765 12.2413L14.9827 11.5212L13.0752 13.359L13.7691 14.0791ZM14.9827 12.2413L17.6531 14.8143L18.3469 14.0942L15.6765 11.5212L14.9827 12.2413ZM17.6531 14.0942C17.3935 14.3443 17.0618 14.7184 16.7524 15.0394C16.423 15.3809 16.0719 15.7151 15.6954 15.9794C15.3191 16.2435 14.9379 16.4232 14.5493 16.4804C14.1707 16.536 13.7531 16.4805 13.2829 16.2216L12.8007 17.0977C13.4547 17.4577 14.0919 17.5584 14.6948 17.4697C15.2878 17.3825 15.8149 17.1173 16.2699 16.7979C16.7247 16.4787 17.1279 16.0906 17.4723 15.7334C17.8365 15.3556 18.0978 15.0543 18.3469 14.8143L17.6531 14.0942ZM13.2829 16.2216C11.9976 15.5143 10.5083 14.3513 9.24552 13.0897C7.97087 11.8162 6.9893 10.5039 6.64603 9.5122L5.70104 9.83931C6.12117 11.0531 7.23798 12.4976 8.53874 13.7971C9.85134 15.1085 11.4145 16.3348 12.8007 17.0977L13.2829 16.2216ZM6.61739 9.44555C6.48416 9.18868 6.4762 8.9764 6.53458 8.77613C6.59843 8.5571 6.75346 8.31558 7.01179 8.04594C7.54246 7.49206 8.33549 6.9846 9.13715 6.40525L8.5514 5.59475C7.82721 6.11812 6.9036 6.71339 6.28971 7.35413C5.97578 7.6818 5.70155 8.06057 5.57454 8.49628C5.44206 8.95075 5.48163 9.42768 5.72968 9.90595L6.61739 9.44555ZM7.14644 7.35355L8.64644 8.85355L9.35355 8.14645L7.85355 6.64645L7.14644 7.35355ZM16.8535 15.1464L15.3535 13.6464L14.6464 14.3536L16.1464 15.8536L16.8535 15.1464Z" fill="#00499A"/>
</svg>
