<svg width="24" height="24" fill="none" xmlns="http://www.w3.org/2000/svg">
  <path d="M4.143 4.1001a.5.5 0 100 1v-1zm2 1a.5.5 0 000-1v1zm-2 1a.5.5 0 100 1v-1zm2 1a.5.5 0 000-1v1zm-2 1a.5.5 0 100 1v-1zm2 1a.5.5 0 000-1v1zm1.443-6.5h.5a.5.5 0 00-.5-.5v.5zm-4.8858 0v-.5a.5.5 0 00-.5.5h.5zm0 19h-.5a.5.5 0 00.5.5v-.5zm4.8857 0v.5a.5.5 0 00.5-.5h-.5zm3.4429-17.5a.5.5 0 000 1v-1zm2 1a.5.5 0 100-1v1zm-2 1a.5.5 0 000 1v-1zm2 1a.5.5 0 100-1v1zm-2 1a.5.5 0 000 1v-1zm2 1a.5.5 0 100-1v1zm1.4429-6.5h.5a.5.5 0 00-.5-.5v.5zm-4.8858 0v-.5a.5.5 0 00-.5.5h.5zm0 19h-.5a.5.5 0 00.5.5v-.5zm4.8858 0v.5a.5.5 0 00.5-.5h-.5zm3.4429-17.5a.5.5 0 100 1v-1zm2 1a.5.5 0 000-1v1zm-2 1a.5.5 0 100 1v-1zm2 1a.5.5 0 000-1v1zm-2 1a.5.5 0 100 1v-1zm2 1a.5.5 0 000-1v1zm1.4428-6.5h.5a.5.5 0 00-.5-.5v.5zm-4.8857 0v-.5a.5.5 0 00-.5.5h.5zm0 19h-.5a.5.5 0 00.5.5v-.5zm4.8857 0v.5a.5.5 0 00.5-.5h-.5zm-15.7143-3a.5.5 0 01-.5.5v1c.8284 0 1.5-.6716 1.5-1.5h-1zm-.5.5a.5.5 0 01-.5-.5h-1c0 .8284.6715 1.5 1.5 1.5v-1zm-.5-.5a.5.5 0 01.5-.5v-1c-.8285 0-1.5.6716-1.5 1.5h1zm.5-.5a.5.5 0 01.5.5h1c0-.8284-.6716-1.5-1.5-1.5v1zm-1-13h2v-1h-2v1zm0 2h2v-1h-2v1zm0 2h2v-1h-2v1zm3.4428-7H2.7002v1h4.8857v-1zm-5.3857.5v19h1v-19h-1zm.5 19.5h4.8857v-1H2.7002v1zm5.3857-.5v-19h-1v19h1zm4.4429-3a.5.5 0 01-.5.5v1c.8284 0 1.5-.6716 1.5-1.5h-1zm-.5.5a.5.5 0 01-.5-.5h-1c0 .8284.6716 1.5 1.5 1.5v-1zm-.5-.5a.5.5 0 01.5-.5v-1c-.8284 0-1.5.6716-1.5 1.5h1zm.5-.5a.5.5 0 01.5.5h1c0-.8284-.6716-1.5-1.5-1.5v1zm-1-13h2v-1h-2v1zm0 2h2v-1h-2v1zm0 2h2v-1h-2v1zm3.4429-7H9.5859v1h4.8858v-1zm-5.3858.5v19h1v-19h-1zm.5 19.5h4.8858v-1H9.5859v1zm5.3858-.5v-19h-1v19h1zm4.4429-3a.5.5 0 01-.5.5v1c.8284 0 1.5-.6716 1.5-1.5h-1zm-.5.5a.5.5 0 01-.5-.5h-1c0 .8284.6715 1.5 1.5 1.5v-1zm-.5-.5a.5.5 0 01.5-.5v-1c-.8285 0-1.5.6716-1.5 1.5h1zm.5-.5a.5.5 0 01.5.5h1c0-.8284-.6716-1.5-1.5-1.5v1zm-1-13h2v-1h-2v1zm0 2h2v-1h-2v1zm0 2h2v-1h-2v1zm3.4428-7h-4.8857v1h4.8857v-1zm-5.3857.5v19h1v-19h-1zm.5 19.5h4.8857v-1h-4.8857v1zm5.3857-.5v-19h-1v19h1z" fill="#FCFDFC"/>
</svg>
