<svg width="48" height="39" viewBox="0 0 48 39" fill="none" xmlns="http://www.w3.org/2000/svg">
<path d="M8.35416 9.91791L8.96546 9.36406C8.82956 9.21651 8.64407 9.1232 8.44377 9.10164C8.24347 9.08008 8.04212 9.13174 7.87748 9.24694L8.35416 9.91791ZM14.4119 16.4952L14.9769 17.0939C15.1357 16.9463 15.2295 16.7425 15.2379 16.5268C15.2464 16.3111 15.1689 16.1007 15.0221 15.9413L14.4108 16.4952H14.4119ZM10.3734 20.2539L9.80736 19.6552C9.72485 19.732 9.65909 19.8247 9.61413 19.9277C9.56918 20.0307 9.54598 20.1417 9.54598 20.2539C9.54598 20.3661 9.56918 20.4772 9.61413 20.5802C9.65909 20.6831 9.72485 20.7759 9.80736 20.8527L10.3734 20.2539ZM20.4675 29.6497L19.9014 30.2484C20.0549 30.3914 20.2575 30.471 20.468 30.471C20.6786 30.471 20.8812 30.3914 21.0346 30.2484L20.4675 29.6497ZM25.5156 24.9518L26.0817 24.3531C25.9283 24.2104 25.7259 24.131 25.5156 24.131C25.3054 24.131 25.103 24.2104 24.9496 24.3531L25.5156 24.9518ZM32.5819 31.5291L33.148 32.1278C33.2305 32.051 33.2963 31.9583 33.3412 31.8553C33.3862 31.7523 33.4094 31.6413 33.4094 31.5291C33.4094 31.4169 33.3862 31.3058 33.3412 31.2028C33.2963 31.0999 33.2305 31.0071 33.148 30.9304L32.5819 31.5291ZM19.4623 37.1661L19.0706 37.8896L19.4612 37.1672L19.4623 37.1661ZM1.28566 19.3137L2.06578 19.04C2.05202 19.0017 2.03542 18.9644 2.01612 18.9284L1.28566 19.3137ZM8.18754 16.8969C8.26543 16.9721 8.35749 17.0314 8.45848 17.0714C8.55947 17.1113 8.6674 17.1312 8.77611 17.1297C8.88482 17.1283 8.99219 17.1057 9.09207 17.0631C9.19196 17.0205 9.28241 16.9588 9.35827 16.8816C9.43413 16.8043 9.4939 16.713 9.53418 16.6128C9.57446 16.5126 9.59445 16.4056 9.59301 16.2977C9.59158 16.1899 9.56875 16.0834 9.52582 15.9843C9.48289 15.8852 9.42071 15.7955 9.34282 15.7202L8.18754 16.8969ZM25.2188 29.78C25.1418 29.7008 25.0495 29.6377 24.9475 29.5946C24.8454 29.5514 24.7357 29.5291 24.6248 29.5289C24.5138 29.5287 24.404 29.5506 24.3018 29.5933C24.1995 29.636 24.107 29.6987 24.0297 29.7776C23.9524 29.8565 23.8918 29.95 23.8517 30.0526C23.8115 30.1552 23.7926 30.2647 23.7959 30.3747C23.7993 30.4847 23.8249 30.5929 23.8713 30.6928C23.9176 30.7928 23.9837 30.8825 24.0657 30.9566L25.2188 29.7789V29.78ZM13.8944 0.722431L13.1927 0.286792L12.3154 1.67908L13.0172 2.11472L13.8944 0.722431ZM30.3133 11.8706L29.8752 12.5668C30.0087 12.6494 30.1632 12.6925 30.3205 12.6912C30.4778 12.6898 30.6315 12.644 30.7635 12.5591L30.3133 11.8706ZM47.008 2.10706L47.7032 1.66048L46.8028 0.282414L46.1076 0.728998L47.0091 2.10706H47.008ZM26.1038 10.0449C26.2583 9.89015 26.3445 9.68087 26.3435 9.46308C26.3424 9.24528 26.2542 9.03682 26.0982 8.88354C25.9423 8.73026 25.7313 8.64473 25.5117 8.64575C25.2922 8.64678 25.082 8.73428 24.9275 8.88901L26.1038 10.0449ZM12.684 21.1471C12.5295 21.3018 12.4432 21.5111 12.4443 21.7289C12.4453 21.9467 12.5335 22.1552 12.6895 22.3084C12.8455 22.4617 13.0564 22.5472 13.276 22.5462C13.4956 22.5452 13.7057 22.4577 13.8602 22.303L12.684 21.1471ZM45.9498 22.2811C46.0987 22.4412 46.3055 22.5361 46.5248 22.5449C46.7442 22.5537 46.9581 22.4757 47.1195 22.3281C47.2809 22.1805 47.3765 21.9753 47.3854 21.7578C47.3943 21.5402 47.3157 21.328 47.1669 21.1679L45.9498 22.2811ZM35.7653 8.90871C35.6163 8.74862 35.4094 8.65377 35.1899 8.64505C34.9705 8.63632 34.7565 8.71443 34.5951 8.8622C34.4337 9.00996 34.3381 9.21527 34.3293 9.43296C34.3205 9.65065 34.3993 9.86289 34.5482 10.023L35.7642 8.90871H35.7653ZM7.74176 10.4718L13.7995 17.049L15.021 15.9413L8.96325 9.36406L7.74176 10.4718ZM13.8437 15.8964L9.80516 19.6552L10.9384 20.8527L14.9769 17.0939L13.8437 15.8964ZM9.80516 20.8527L19.9014 30.2484L21.0335 29.051L10.9384 19.6552L9.80626 20.8527H9.80516ZM21.0335 30.2484L26.0806 25.5505L24.9485 24.3531L19.9003 29.051L21.0335 30.2484ZM24.9485 25.5505L32.0148 32.1278L33.1469 30.9304L26.0806 24.352L24.9485 25.5505ZM32.0148 30.9304C31.3329 31.5652 30.4887 32.4868 29.6435 33.334C28.7652 34.2141 27.8107 35.0941 26.7746 35.7968C25.7407 36.4973 24.6583 36.9986 23.5251 37.1595C22.4062 37.3183 21.188 37.1541 19.8507 36.4426L19.0695 37.8896C20.7069 38.7609 22.2804 38.9951 23.759 38.785C25.2232 38.577 26.544 37.9422 27.7092 37.1508C28.8744 36.3616 29.9161 35.3951 30.8198 34.4888C31.7577 33.5497 32.4826 32.7451 33.1469 32.1278L32.0148 30.9304ZM19.8507 36.4426C16.3992 34.6081 12.4225 31.6046 9.05704 28.357C5.66954 25.0886 3.0103 21.6736 2.06578 19.0389L0.505543 19.5895C1.58248 22.5919 4.47454 26.2248 7.90286 29.5337C11.3521 32.8623 15.4513 35.9665 19.0695 37.8896L19.8507 36.4426ZM2.01723 18.9284C1.61227 18.1731 1.57696 17.5153 1.76454 16.8925C1.96316 16.2358 2.4288 15.5571 3.1394 14.8391C4.58488 13.3833 6.74758 12.0436 8.83084 10.5889L7.87748 9.24694C5.92443 10.6108 3.54325 12.0906 1.95985 13.6876C1.15656 14.4976 0.486784 15.4039 0.178931 16.4218C-0.137751 17.4726 -0.0472703 18.5759 0.5563 19.7001L2.01723 18.9284ZM4.21965 13.0615L8.18865 16.8969L9.34393 15.7202L5.37383 11.887L4.21965 13.0637V13.0615ZM29.8521 34.2458L25.2199 29.78L24.0668 30.9566L28.699 35.4225L29.8532 34.2458H29.8521ZM13.4564 1.64187H46.5589V1.51878e-05H13.4564V1.64187ZM46.3449 1.41858V21.7261H48V1.41858H46.3449ZM46.3449 21.7261C46.3434 21.6682 46.3651 21.6121 46.4052 21.5701C46.4453 21.528 46.5006 21.5035 46.5589 21.5017V23.1436C46.9392 23.145 47.3045 22.9967 47.5745 22.7311C47.8445 22.4655 47.9971 22.1044 47.9989 21.7272H46.3438L46.3449 21.7261ZM46.5589 1.64187C46.5008 1.64015 46.4457 1.61573 46.4056 1.57391C46.3655 1.5321 46.3437 1.47627 46.3449 1.41858H48C47.9994 1.23153 47.9617 1.04643 47.8889 0.873866C47.8161 0.701303 47.7098 0.544664 47.576 0.41291C47.4421 0.281155 47.2834 0.176871 47.1089 0.106023C46.9344 0.0351738 46.7475 -0.000848995 46.5589 1.51878e-05V1.64187ZM13.4564 1.51878e-05C13.2679 -0.000704757 13.0811 0.0354244 12.9068 0.106338C12.7324 0.177251 12.5738 0.281559 12.4401 0.413299C12.3063 0.545039 12.2001 0.701629 12.1274 0.87412C12.0547 1.04661 12.017 1.23162 12.0164 1.41858H13.6715C13.6727 1.47645 13.6507 1.53244 13.6104 1.57429C13.5701 1.61613 13.5147 1.64043 13.4564 1.64187V1.51878e-05ZM13.0183 2.11472L29.8763 12.5668L30.7536 11.1745L13.8955 0.721336L13.0183 2.11472ZM30.7646 12.5591L47.0102 2.10597L46.1087 0.728998L29.8642 11.1821L30.7646 12.5591ZM24.9286 8.88901L12.6851 21.1482L13.8613 22.3041L26.1049 10.0449L24.9286 8.88901ZM47.168 21.1701L35.7653 8.9109L34.5493 10.0241L45.951 22.2833L47.168 21.169V21.1701ZM12.0153 1.41748V14.8785H13.6704V1.41858H12.0153V1.41748ZM12.9345 21.5006H12.4136V23.1425H12.9345V21.5006ZM13.762 22.3216V17.7758H12.1069V22.3238H13.762V22.3216ZM46.5578 21.5006H12.9345V23.1425H46.5578V21.5006Z" fill="#FCFDFC"/>
</svg>
