<svg width="20" height="21" viewBox="0 0 20 21" fill="none" xmlns="http://www.w3.org/2000/svg">
<path d="M13 10.26C13 11.9169 11.6569 13.26 10 13.26C8.34315 13.26 7 11.9169 7 10.26C7 8.60316 8.34315 7.26001 10 7.26001C11.6569 7.26001 13 8.60316 13 10.26Z" stroke="#FCFDFC" stroke-width="1.5"/>
<path d="M11.1739 1.26001H8.43478V3.66001L6.08696 4.86001L3.73913 3.26001L2.17391 5.26001L4.13043 6.86001L3.34783 8.86001H1V11.66H3.34783L4.13043 13.66L2.17391 15.66L4.13043 17.66L6.08696 15.66L8.43478 16.86V19.26H11.1739V16.86L13.5217 15.66L15.087 17.66L17.0435 15.66L15.4783 13.66L16.6522 11.66H19V8.86001H16.6522L15.4783 6.86001L17.0435 5.26001L15.4783 3.26001L13.5217 4.86001L11.1739 3.66001V1.26001Z" stroke="#FCFDFC" stroke-width="1.5"/>
</svg>
