<svg width="48" height="48" viewBox="0 0 48 48" fill="none" xmlns="http://www.w3.org/2000/svg">
<path d="M9.821 15.3111L10.3747 14.8053C10.1201 14.5266 9.69805 14.4805 9.38935 14.6978L9.821 15.3111ZM15.3103 21.32L15.8235 21.867C16.1227 21.5862 16.1408 21.1171 15.8641 20.8142L15.3103 21.32ZM11.6509 24.7537L11.1377 24.2068C10.9866 24.3486 10.9009 24.5465 10.9009 24.7537C10.9009 24.9609 10.9866 25.1589 11.1377 25.3006L11.6509 24.7537ZM20.7995 33.3379L20.2863 33.8848C20.5749 34.1556 21.0241 34.1556 21.3127 33.8848L20.7995 33.3379ZM25.3738 29.0458L25.887 28.4989C25.5984 28.2281 25.1491 28.2281 24.8606 28.4989L25.3738 29.0458ZM31.7778 35.0547L32.291 35.6017C32.4421 35.4599 32.5278 35.2619 32.5278 35.0547C32.5278 34.8475 32.4421 34.6496 32.291 34.5078L31.7778 35.0547ZM19.8872 40.2052L19.5329 40.8663L19.8872 40.2052ZM3.41616 23.8953L4.12284 23.6441C4.11046 23.6093 4.09551 23.5754 4.07813 23.5427L3.41616 23.8953ZM9.67119 21.6868C9.96794 21.9758 10.4428 21.9695 10.7318 21.6727C11.0207 21.376 11.0144 20.9012 10.7177 20.6122L9.67119 21.6868ZM25.106 33.4561C24.809 33.1674 24.3342 33.1742 24.0455 33.4712C23.7568 33.7683 23.7636 34.2431 24.0606 34.5318L25.106 33.4561ZM14.842 6.90969L14.206 6.51217L13.4109 7.78414L14.0469 8.18166L14.842 6.90969ZM29.7222 17.0951L29.3247 17.731C29.5718 17.8855 29.8859 17.8828 30.1304 17.7243L29.7222 17.0951ZM44.8526 8.1749L45.4818 7.76676L44.6655 6.50832L44.0363 6.91645L44.8526 8.1749ZM25.9066 15.4268C26.1981 15.1326 26.1959 14.6577 25.9016 14.3662C25.6074 14.0746 25.1325 14.0769 24.841 14.3711L25.9066 15.4268ZM13.745 25.5709C13.4535 25.8652 13.4557 26.34 13.7499 26.6316C14.0442 26.9231 14.519 26.9209 14.8106 26.6266L13.745 25.5709ZM43.8932 26.6073C44.1741 26.9118 44.6486 26.9309 44.953 26.65C45.2575 26.3691 45.2766 25.8946 44.9957 25.5902L43.8932 26.6073ZM34.6623 14.3904C34.3815 14.086 33.907 14.0669 33.6025 14.3477C33.2981 14.6286 33.279 15.1031 33.5599 15.4075L34.6623 14.3904ZM9.26727 15.817L14.7566 21.8259L15.8641 20.8142L10.3747 14.8053L9.26727 15.817ZM14.7971 20.7731L11.1377 24.2068L12.1641 25.3006L15.8235 21.867L14.7971 20.7731ZM11.1377 25.3006L20.2863 33.8848L21.3127 32.791L12.1641 24.2068L11.1377 25.3006ZM21.3127 33.8848L25.887 29.5927L24.8606 28.4989L20.2863 32.791L21.3127 33.8848ZM24.8606 29.5927L31.2646 35.6017L32.291 34.5078L25.887 28.4989L24.8606 29.5927ZM31.2646 34.5078C30.6467 35.0876 29.8822 35.9301 29.116 36.704C28.3198 37.5082 27.4546 38.3119 26.5166 38.9531C25.5792 39.5938 24.598 40.0521 23.5707 40.1993C22.5572 40.3444 21.4533 40.1937 20.2415 39.5442L19.5329 40.8663C21.0174 41.6619 22.443 41.8761 23.7833 41.6841C25.1099 41.4941 26.3069 40.9134 27.3631 40.1914C28.4187 39.4698 29.3626 38.587 30.182 37.7593C31.0314 36.9013 31.689 36.1665 32.291 35.6017L31.2646 34.5078ZM20.2415 39.5442C17.1134 37.8676 13.5089 35.1241 10.4588 32.1565C7.38961 29.1705 4.97828 26.0507 4.12284 23.6441L2.70948 24.1465C3.68481 26.8904 6.30571 30.2087 9.41275 33.2316C12.5388 36.273 16.2545 39.1092 19.5329 40.8663L20.2415 39.5442ZM4.07813 23.5427C3.71063 22.8527 3.67907 22.2515 3.84935 21.6827C4.02874 21.0834 4.45069 20.4624 5.09524 19.8073C6.40461 18.4764 8.36459 17.2532 10.2526 15.9244L9.38935 14.6978C7.61819 15.9443 5.46139 17.2963 4.02597 18.7553C3.29812 19.4951 2.69067 20.3227 2.41235 21.2525C2.12492 22.2127 2.20733 23.2211 2.75419 24.2479L4.07813 23.5427ZM6.07396 18.1838L9.67119 21.6868L10.7177 20.6122L7.12046 17.1091L6.07396 18.1838ZM29.3049 37.5369L25.106 33.4561L24.0606 34.5318L28.2595 38.6126L29.3049 37.5369ZM14.4444 7.75H44.4444V6.25H14.4444V7.75ZM44.25 7.54568V26.0988H45.75V7.54568H44.25ZM44.25 26.0988C44.25 25.9733 44.3498 25.8944 44.4444 25.8944V27.3944C45.1528 27.3944 45.75 26.827 45.75 26.0988H44.25ZM44.4444 7.75C44.3498 7.75 44.25 7.67114 44.25 7.54568H45.75C45.75 6.81747 45.1527 6.25 44.4444 6.25V7.75ZM14.4444 6.25C13.7361 6.25 13.1389 6.81747 13.1389 7.54568H14.6389C14.6389 7.67115 14.5391 7.75 14.4444 7.75V6.25ZM14.0469 8.18166L29.3247 17.731L30.1197 16.4591L14.842 6.90969L14.0469 8.18166ZM30.1304 17.7243L44.8526 8.1749L44.0363 6.91645L29.3141 16.4658L30.1304 17.7243ZM24.841 14.3711L13.745 25.5709L14.8106 26.6266L25.9066 15.4268L24.841 14.3711ZM44.9957 25.5902L34.6623 14.3904L33.5599 15.4075L43.8932 26.6073L44.9957 25.5902ZM13.1389 7.54568V19.8444H14.6389V7.54568H13.1389ZM13.9722 25.8944H13.5V27.3944H13.9722V25.8944ZM14.7222 26.6444V22.4889H13.2222V26.6444H14.7222ZM44.4444 25.8944H13.9722V27.3944H44.4444V25.8944Z" fill="#FCFDFC"/>
</svg>
