<svg width="24" height="24" viewBox="0 0 24 24" fill="none" xmlns="http://www.w3.org/2000/svg">
<path fill-rule="evenodd" clip-rule="evenodd" d="M12 3.25C7.16751 3.25 3.25 7.16751 3.25 12C3.25 16.8325 7.16751 20.75 12 20.75C16.8325 20.75 20.75 16.8325 20.75 12C20.75 7.16751 16.8325 3.25 12 3.25ZM1.75 12C1.75 6.33908 6.33908 1.75 12 1.75C17.6609 1.75 22.25 6.33908 22.25 12C22.25 17.6609 17.6609 22.25 12 22.25C6.33908 22.25 1.75 17.6609 1.75 12ZM9.5 6.75C9.91421 6.75 10.25 7.08579 10.25 7.5V16.5C10.25 16.9142 9.91421 17.25 9.5 17.25C9.08579 17.25 8.75 16.9142 8.75 16.5V7.5C8.75 7.08579 9.08579 6.75 9.5 6.75ZM14.5 6.75C14.9142 6.75 15.25 7.08579 15.25 7.5V16.5C15.25 16.9142 14.9142 17.25 14.5 17.25C14.0858 17.25 13.75 16.9142 13.75 16.5V7.5C13.75 7.08579 14.0858 6.75 14.5 6.75Z" fill="#00499A"/>
</svg>
