<svg width="20" height="20" fill="none" xmlns="http://www.w3.org/2000/svg">
  <path d="M13 10c0 1.6569-1.3431 3-3 3s-3-1.3431-3-3 1.3431-3 3-3 3 1.3431 3 3z" stroke="#FCFDFC" stroke-width="1.5"/>
  <path d="M11.1739 1H8.4348v2.4L6.087 4.6 3.739 3 2.174 5l1.9565 1.6-.7826 2H1v2.8h2.3478l.7826 2-1.9565 2 1.9565 2 1.9566-2 2.3478 1.2V19h2.7391v-2.4l2.3478-1.2 1.5653 2 1.9565-2-1.5652-2 1.1739-2H19V8.6h-2.3478l-1.1739-2L17.0435 5l-1.5652-2-1.9566 1.6-2.3478-1.2V1z" stroke="#FCFDFC" stroke-width="1.5"/>
</svg>
