<svg width="24" height="24" viewBox="0 0 24 24" fill="none" xmlns="http://www.w3.org/2000/svg">
<path fill-rule="evenodd" clip-rule="evenodd" d="M15.0001 10.5V5.5C15.0001 3.84315 13.6569 2.5 12.0001 2.5C10.3432 2.5 9.00007 3.84315 9.00007 5.5V10.5C9.00007 12.1569 10.3432 13.5 12.0001 13.5C13.6569 13.5 15.0001 12.1569 15.0001 10.5ZM12.0001 1C9.51479 1 7.50007 3.01472 7.50007 5.5V10.5C7.50007 12.9853 9.51479 15 12.0001 15C14.4854 15 16.5001 12.9853 16.5001 10.5V5.5C16.5001 3.01472 14.4854 1 12.0001 1Z" fill="#FCFDFC"/>
<path fill-rule="evenodd" clip-rule="evenodd" d="M5.5 10.25C5.91421 10.25 6.25 10.5858 6.25 11C6.25 11.1255 6.31236 11.532 6.51841 12.106C6.71728 12.66 7.0301 13.3131 7.48159 13.9339C8.37518 15.1625 9.7935 16.25 12.0001 16.25C14.238 16.25 15.6525 15.2577 16.5285 14.108C17.4336 12.9199 17.75 11.5782 17.75 11C17.75 10.5858 18.0858 10.25 18.5 10.25C18.9142 10.25 19.25 10.5858 19.25 11C19.25 11.9218 18.8164 13.5801 17.7216 15.017C16.7026 16.3545 15.0989 17.5131 12.75 17.7179L12.7498 21.5C12.7498 21.9143 12.414 22.25 11.9998 22.25C11.5856 22.25 11.2498 21.9142 11.2498 21.5L11.25 17.7148C8.87428 17.488 7.27268 16.1969 6.26849 14.8161C5.71995 14.0619 5.34526 13.2775 5.10662 12.6128C4.87515 11.968 4.75 11.3745 4.75 11C4.75 10.5858 5.08579 10.25 5.5 10.25Z" fill="#FCFDFC"/>
</svg>
