<svg width="24" height="24" viewBox="0 0 24 24" fill="none" xmlns="http://www.w3.org/2000/svg">
<path fill-rule="evenodd" clip-rule="evenodd" d="M12 3.25C7.16751 3.25 3.25 7.16751 3.25 12C3.25 16.8325 7.16751 20.75 12 20.75C16.8325 20.75 20.75 16.8325 20.75 12C20.75 7.16751 16.8325 3.25 12 3.25ZM1.75 12C1.75 6.33908 6.33908 1.75 12 1.75C17.6609 1.75 22.25 6.33908 22.25 12C22.25 17.6609 17.6609 22.25 12 22.25C6.33908 22.25 1.75 17.6609 1.75 12ZM7.75 8.5C7.75 8.08579 8.08579 7.75 8.5 7.75H15.5C15.9142 7.75 16.25 8.08579 16.25 8.5V15.5C16.25 15.9142 15.9142 16.25 15.5 16.25H8.5C8.08579 16.25 7.75 15.9142 7.75 15.5V8.5ZM9.25 9.25V14.75H14.75V9.25H9.25Z" fill="#00499A"/>
</svg>
