<svg width="24" height="24" viewBox="0 0 24 24" fill="none" xmlns="http://www.w3.org/2000/svg">
<path fill-rule="evenodd" clip-rule="evenodd" d="M15.2174 3C15.2174 2.72386 15.4412 2.5 15.7174 2.5H17.087C17.3631 2.5 17.587 2.72386 17.587 3V3.89403L18.1974 4.20602L18.9226 3.61294C19.0267 3.52782 19.1607 3.48821 19.2944 3.50306C19.428 3.5179 19.55 3.58595 19.6329 3.69185L20.4155 4.69185C20.57 4.88923 20.5544 5.17048 20.3792 5.34965L19.8638 5.87647L20.1124 6.3H21C21.2761 6.3 21.5 6.52386 21.5 6.8V8.2C21.5 8.47614 21.2761 8.7 21 8.7H20.1124L19.8426 9.15973L20.4155 9.89185C20.57 10.0892 20.5544 10.3705 20.3792 10.5496L19.4009 11.5496C19.3001 11.6527 19.1598 11.7072 19.0159 11.6992C18.872 11.6913 18.7386 11.6216 18.6498 11.5082L18.1212 10.8329L17.587 11.106V12C17.587 12.2761 17.3631 12.5 17.087 12.5H15.7174C15.4412 12.5 15.2174 12.2761 15.2174 12V11.106L14.6436 10.8127L13.9226 11.5496C13.8286 11.6458 13.6997 11.7 13.5652 11.7C13.4307 11.7 13.3019 11.6458 13.2078 11.5496L12.2295 10.5496C12.0394 10.3553 12.0394 10.0447 12.2295 9.85035L12.9819 9.08131L12.8326 8.7H12C11.7239 8.7 11.5 8.47614 11.5 8.2V6.8C11.5 6.52386 11.7239 6.3 12 6.3H12.8326L12.967 5.95669L12.2704 5.38705C12.0599 5.21489 12.0256 4.90602 12.1932 4.69185L12.9758 3.69185C13.1381 3.48444 13.4335 3.43851 13.6511 3.58682L14.58 4.21982L15.2174 3.89403V3ZM16.2174 3.5V4.2C16.2174 4.38779 16.1122 4.55975 15.9449 4.64522L14.771 5.24522C14.6082 5.32843 14.413 5.31614 14.2619 5.21318L13.4748 4.67679L13.2823 4.92276L13.8817 5.41294C14.0497 5.55027 14.1099 5.78019 14.0308 5.9822L13.6395 6.9822C13.5645 7.17387 13.3797 7.3 13.1739 7.3H12.5V7.7H13.1739C13.3797 7.7 13.5645 7.82613 13.6395 8.0178L14.0308 9.0178C14.1025 9.20094 14.0602 9.40907 13.9226 9.54965L13.2864 10.2L13.5652 10.485L14.1861 9.85035C14.3391 9.69389 14.5761 9.65517 14.771 9.75478L15.9449 10.3548C16.1122 10.4402 16.2174 10.6122 16.2174 10.8V11.5H16.587V10.8C16.587 10.6122 16.6922 10.4403 16.8594 10.3548L18.0333 9.75478C18.2465 9.64581 18.507 9.70328 18.6546 9.89184L19.0853 10.4422L19.3582 10.1633L18.8454 9.50815C18.7189 9.3465 18.704 9.12394 18.8079 8.9469L19.3949 7.9469C19.4847 7.79395 19.6487 7.7 19.8261 7.7H20.5V7.3H19.8261C19.6487 7.3 19.4847 7.20605 19.3949 7.0531L18.8079 6.0531C18.6937 5.85854 18.724 5.61162 18.8817 5.45035L19.3582 4.96334L19.1602 4.71043L18.5774 5.18706C18.4236 5.31277 18.2101 5.33559 18.0333 5.24522L16.8594 4.64522C16.6922 4.55975 16.587 4.38779 16.587 4.2V3.5H16.2174ZM4.5 8C4.5 5.50164 6.50163 3.49996 9.00001 3.5C9.27615 3.5 9.5 3.72387 9.5 4.00001C9.5 4.27615 9.27613 4.5 8.99999 4.5C7.05393 4.49997 5.5 6.05391 5.5 8C5.5 8.27614 5.27614 8.5 5 8.5C4.72386 8.5 4.5 8.27614 4.5 8ZM16.5 6.5C15.9477 6.5 15.5 6.94772 15.5 7.5C15.5 8.0523 15.9477 8.5 16.5 8.5C17.0523 8.5 17.5 8.05231 17.5 7.5C17.5 6.94771 17.0523 6.5 16.5 6.5ZM14.5 7.5C14.5 6.39543 15.3954 5.5 16.5 5.5C17.6046 5.5 18.5 6.39544 18.5 7.5C18.5 8.60459 17.6046 9.5 16.5 9.5C15.3954 9.5 14.5 8.6046 14.5 7.5ZM7 10.5C5.067 10.5 3.5 12.067 3.5 14C3.5 15.4681 4.40401 16.7262 5.68761 17.2458C5.94441 17.3497 6.21654 17.4241 6.5 17.4646V15.4146C5.9174 15.2087 5.5 14.6531 5.5 14C5.5 13.1716 6.17157 12.5 7 12.5C7.82843 12.5 8.5 13.1716 8.5 14C8.5 14.6531 8.0826 15.2087 7.5 15.4146V17.4646C7.78346 17.4241 8.05559 17.3497 8.31239 17.2458C9.59599 16.7262 10.5 15.4681 10.5 14C10.5 12.067 8.933 10.5 7 10.5ZM2.5 14C2.5 11.5147 4.51472 9.5 7 9.5C9.48528 9.5 11.5 11.5147 11.5 14C11.5 15.7676 10.481 17.2961 9 18.0321V19.5C9 20.6046 8.10457 21.5 7 21.5C5.89543 21.5 5 20.6046 5 19.5V18.0321C3.51897 17.2961 2.5 15.7676 2.5 14ZM6 18.3884V19.5C6 20.0523 6.44772 20.5 7 20.5C7.55228 20.5 8 20.0523 8 19.5V18.3884C7.6781 18.4615 7.34335 18.5 7 18.5C6.65665 18.5 6.3219 18.4615 6 18.3884ZM7 13.5C6.72386 13.5 6.5 13.7239 6.5 14C6.5 14.2761 6.72386 14.5 7 14.5C7.27614 14.5 7.5 14.2761 7.5 14C7.5 13.7239 7.27614 13.5 7 13.5ZM17 13.5C17.2761 13.5 17.5 13.7239 17.5 14C17.5 16.4984 15.4984 18.5 13 18.5C12.7238 18.5 12.5 18.2761 12.5 18C12.5 17.7238 12.7239 17.5 13 17.5C14.9461 17.5 16.5 15.9461 16.5 14C16.5 13.7239 16.7239 13.5 17 13.5Z" fill="#2D3436"/>
</svg>
