<svg xmlns="http://www.w3.org/2000/svg" width="24" height="24" fill="none" viewBox="0 0 24 24" xmlns:v="https://vecta.io/nano"><path d="M3 19.5h-.75a.75.75 0 0 0 .75.75v-.75zm18 0v.75a.75.75 0 0 0 .75-.75H21zm0-15h.75a.75.75 0 0 0-.75-.75v.75zm-18 0v-.75a.75.75 0 0 0-.75.75H3zm9.692 7.5l.331.673L14.39 12l-1.366-.673-.331.673zm-1.385.682h-.75v1.205l1.081-.532-.331-.673zm0-1.364l.331-.673-1.081-.532v1.205h.75zM3 5.25h18v-1.5H3v1.5zm18 13.5H3v1.5h18v-1.5zm-.75-.614v1.355c0 .009 0 .009.75.009h.75v-1.355l-1.5-.009zM2.25 4.5v1.364h1.5V4.5h-1.5zm6.981 15.75h5.538v-1.5H9.231v1.5zm3.13-8.923l-1.385.682.663 1.346 1.385-.682-.663-1.346zm-.303 1.355v-1.364h-1.5v1.364h1.5zm-1.081-.691l1.385.682.663-1.346-1.385-.682-.663 1.346zm4.427.009c0 1.834-1.513 3.341-3.404 3.341v1.5c2.698 0 4.904-2.157 4.904-4.841h-1.5zM12 15.341c-1.891 0-3.404-1.506-3.404-3.341h-1.5c0 2.684 2.206 4.841 4.904 4.841v-1.5zM8.596 12c0-1.834 1.513-3.341 3.404-3.341v-1.5c-2.697 0-4.904 2.157-4.904 4.841h1.5zM12 8.659c1.891 0 3.404 1.507 3.404 3.341h1.5c0-2.684-2.206-4.841-4.904-4.841v1.5zM20.25 4.5V12h1.5V4.5h-1.5zm0 7.5v6.136h1.5V12h-1.5zm-16.5 7.5V12h-1.5v7.5h1.5zm0-7.5V5.864h-1.5V12h1.5z" fill="#2d3436"/></svg>