<svg width="24" height="24" fill="none" xmlns="http://www.w3.org/2000/svg">
  <path d="M6 3v-.5a.5.5 0 00-.5.5H6zm7.3333 0l.3536-.3535a.5002.5002 0 00-.3536-.1465V3zM18 7.6667h.5a.5003.5003 0 00-.1464-.3536L18 7.6667zM6 20.3333h-.5a.5.5 0 00.5.5v-.5zm7.3333-12h-.5a.5.5 0 00.5.5v-.5zm1.2574 5.0339l-.1294-.4829-.4829.1294.1294.4829.4829-.1294zm1.3229-.3545l.483-.1294-.1294-.4829-.483.1294.1294.4829zm.3106 1.1592l-.483.1294.0792.2955.2992.064.1046-.4889zm1.2892.2757l-.1046.4889.3197.0684.1908-.2654-.4059-.2919zm.7379-1.026l.3006-.3995-.4083-.3071-.2982.4147.4059.2919zm1.0147.7634l.4358.2452.2147-.3815-.3499-.2632-.3006.3995zm-.5488.9753l-.4358-.2452-.1874.333.2721.2683.3511-.3561zm.8257.814l-.351.3561.2039.201.2765-.0741-.1294-.483zm1.1339-.3038l.483-.1294-.1294-.483-.483.1294.1294.483zm.3624 1.3523l.1294.483.483-.1295-.1294-.4829-.483.1294zm-1.1339.3038l-.1294-.4829-.2766.0741-.076.2759.482.1329zm-.3082 1.1179l-.482-.1329-.0904.3279.2719.2045.3005-.3995zm1.0148.7633l.4357.2453.2148-.3816-.3499-.2632-.3006.3995zm-.6861 1.2192l-.3006.3995.4563.3433.28-.4976-.4357-.2452zm-1.0148-.7634l.3006-.3996-.3295-.2479-.3061.2763.335.3712zm-.9786.8834l-.335-.3712-.2271.205.0791.2956.483-.1294zm.3106 1.1591l.1294.4829.483-.1294-.1294-.4829-.483.1294zm-1.3229.3544l-.483.1295.1294.4829.483-.1294-.1294-.483zm-.3106-1.1591l.483-.1294-.0792-.2955-.2992-.064-.1046.4889zm-1.2892-.2757l.1046-.4889-.3599-.077-.1804.3207.4357.2452zm-.6861 1.2191l-.2547.4303.4398.2604.2506-.4454-.4357-.2453zm-1.2037-.7127l-.4358-.2452-.2399.4262.4209.2492.2548-.4302zm.6861-1.2191l.4357.2452.1585-.2816-.1916-.2601-.4026.2965zm-.6368-.8647l.4026-.2965-.2024-.2748-.3296.0884.1294.4829zm-1.1339.3039l-.483.1294.1294.4829.483-.1294-.1294-.4829zm-.3624-1.3523l-.1294-.483-.483.1294.1294.483.483-.1294zm1.1339-.3039l.1294.483.3297-.0883.0378-.3392-.4969-.0555zm.1192-1.0672l.4969.0555.0404-.3616-.3318-.1497-.2055.4558zm-1.152-.5195l-.4601-.1958-.1916.4504.4461.2012.2056-.4558zm.4971-1.1685l.1651-.472-.4419-.1545-.1833.4308.4601.1957zm1.341.4689l-.1651.472.28.0979.2201-.1987-.335-.3712zm.9786-.8834l.335.3712.2272-.205-.0792-.2956-.483.1294zM6 3.5h7.3333v-1H6v1zm6.9798-.1465l4.6666 4.6667.7072-.707-4.6667-4.6668-.7071.7071zm.373 16.4798H6v1h7.3528v-1zm-6.8528.5V3h-1v17.3333h1zM12.8333 3v5.3333h1V3h-1zM17.5 7.6667v.6666h1v-.6666h-1zm-4.1667 1.1666H18v-1h-4.6667v1zm4.1667-.5V14h1V8.3333h-1zm-.0227 8.9192c.1429.5335-.1737 1.0818-.7071 1.2248l.2588.9659c1.0669-.2859 1.7001-1.3826 1.4142-2.4495l-.9659.2588zm-.7071 1.2248c-.5335.1429-1.0818-.1737-1.2248-.7072l-.9659.2589c.2859 1.0669 1.3826 1.7001 2.4495 1.4142l-.2588-.9659zm-1.2248-.7072c-.1429-.5334.1737-1.0818.7071-1.2247l-.2588-.9659c-1.0669.2859-1.7001 1.3825-1.4142 2.4495l.9659-.2589zm.7071-1.2247c.5335-.1429 1.0818.1736 1.2248.7071l.9659-.2588c-.2859-1.0669-1.3826-1.7001-2.4495-1.4142l.2588.9659zm-1.5324-2.6952l1.3229-.3545-.2588-.9659-1.3229.3545.2588.9659zm.7106-.708l.3105 1.1591.966-.2589-.3106-1.1591-.9659.2589zm.6889 1.5186l1.2892.2757.2092-.9779-1.2892-.2757-.2092.9779zm1.7997.0787l.7379-1.0259-.8118-.5839-.7379 1.0259.8118.5839zm.0314-.9183l1.0148.7634.6011-.7991-1.0147-.7634-.6012.7991zm.8796.1186l-.5489.9753.8715.4904.5489-.9753-.8715-.4904zm-.4642 1.5766l.8258.814.702-.7122-.8257-.814-.7021.7122zm1.3062.9409l1.134-.3038-.2589-.966-1.1339.3039.2588.9659zm.5216-.6574l.3623 1.3523.966-.2588-.3624-1.3523-.9659.2588zm.7159.7399l-1.1339.3039.2588.9659 1.1339-.3038-.2588-.966zm-1.4865.6539l-.3082 1.1179.9641.2657.3081-1.1178-.964-.2658zm-.1267 1.6503l1.0147.7634.6012-.7991-1.0148-.7634-.6011.7991zm.8796.1186l-.6861 1.2191.8714.4905.6861-1.2191-.8714-.4905zm.0502 1.0648l-1.0148-.7634-.6011.7991 1.0147.7634.6012-.7991zm-1.6504-.735l-.9786.8834.67.7423.9787-.8834-.6701-.7423zm-1.1266 1.384l.3106 1.1591.966-.2588-.3106-1.1591-.966.2588zm.6642.5467l-1.3229.3545.2588.9659 1.3229-.3545-.2588-.9659zm-.7105.708l-.3106-1.1591-.966.2588.3106 1.1592.966-.2589zm-.689-1.5186l-1.2892-.2757-.2092.9779 1.2892.2757.2092-.9779zm-1.8295-.032l-.6861 1.2191.8714.4905.6861-1.2192-.8714-.4904zm.0043 1.0341l-1.2037-.7127-.5095.8604 1.2038.7128.5094-.8605zm-1.0227-.0373l.6861-1.2191-.8715-.4904-.6861 1.2191.8715.4904zm.653-1.7608l-.6368-.8647-.8052.593.6368.8647.8052-.593zm-1.1688-1.0511l-1.134.3038.2589.9659 1.1339-.3038-.2588-.9659zm-.5216.6573l-.3623-1.3522-.966.2588.3624 1.3523.9659-.2589zm-.7159-.7399l1.1339-.3038-.2588-.9659-1.1339.3038.2588.9659zm1.5014-.7313l.1192-1.0672-.9938-.1109-.1192 1.0672.9938.1109zm-.1722-1.5785l-1.1519-.5195-.4112.9116 1.152.5195.4111-.9116zm-.8974.132l.4971-1.1685-.9202-.3914-.4971 1.1684.9202.3915zm-.128-.8922l1.3409.4689.3301-.944-1.3409-.4689-.3301.944zm1.841.3681l.9786-.8834-.67-.7423-.9786.8834.67.7423zm1.1266-1.384l-.3106-1.1591-.9659.2588.3105 1.1591.966-.2588z" fill="#FCFDFC"/>
</svg>
