<svg xmlns="http://www.w3.org/2000/svg" width="24" height="24" fill="none" viewBox="0 0 24 24"  xmlns:v="https://vecta.io/nano"><path d="M6 3v-.5a.5.5 0 0 0-.5.5H6zm7.333 0l.354-.354a.5.5 0 0 0-.354-.146V3zM18 7.667h.5a.5.5 0 0 0-.146-.354L18 7.667zM6 20.333h-.5a.5.5 0 0 0 .5.5v-.5zm7.333-12h-.5a.5.5 0 0 0 .5.5v-.5zm1.257 5.034l-.129-.483-.483.129.129.483.483-.129zm1.323-.354l.483-.129-.129-.483-.483.129.129.483zm.311 1.159l-.483.129.079.296.299.064.105-.489zm1.289.276l-.105.489.32.068.191-.265-.406-.292zm.738-1.026l.301-.399-.408-.307-.298.415.406.292zm1.015.763l.436.245.215-.381-.35-.263-.301.399zm-.549.975l-.436-.245-.187.333.272.268.351-.356zm.826.814l-.351.356.204.201.276-.074-.129-.483zm1.134-.304l.483-.129-.129-.483-.483.129.129.483zm.362 1.352l.129.483.483-.13-.129-.483-.483.129zm-1.134.304l-.129-.483-.277.074-.076.276.482.133zm-.308 1.118l-.482-.133-.09.328.272.204.3-.399zm1.015.763l.436.245.215-.382-.35-.263-.301.399zm-.686 1.219l-.301.399.456.343.28-.498-.436-.245zm-1.015-.763l.301-.4-.329-.248-.306.276.335.371zm-.979.883l-.335-.371-.227.205.079.296.483-.129zm.311 1.159l.129.483.483-.129-.129-.483-.483.129zm-1.323.354l-.483.13.129.483.483-.129-.129-.483zm-.311-1.159l.483-.129-.079-.295-.299-.064-.105.489zm-1.289-.276l.105-.489-.36-.077-.18.321.436.245zm-.686 1.219l-.255.43.44.26.251-.445-.436-.245zm-1.204-.713l-.436-.245-.24.426.421.249.255-.43zm.686-1.219l.436.245.159-.282-.192-.26-.403.297zm-.637-.865l.403-.297-.202-.275-.33.088.129.483zm-1.134.304l-.483.129.129.483.483-.129-.129-.483zM11.984 18l-.129-.483-.483.129.129.483.483-.129zm1.134-.304l.129.483.33-.088.038-.339-.497-.055zm.119-1.067l.497.056.04-.362-.332-.15-.206.456zm-1.152-.519l-.46-.196-.192.45.446.201.206-.456zm.497-1.169l.165-.472-.442-.155-.183.431.46.196zm1.341.469l-.165.472.28.098.22-.199-.335-.371zm.979-.883l.335.371.227-.205-.079-.296-.483.129zM6 3.5h7.333v-1H6v1zm6.98-.146l4.667 4.667.707-.707-4.667-4.667-.707.707zm.373 16.48H6v1h7.353v-1zm-6.853.5V3h-1v17.333h1zM12.833 3v5.333h1V3h-1zM17.5 7.667v.667h1v-.667h-1zm-4.167 1.167H18v-1h-4.667v1zm4.167-.5V14h1V8.333h-1zm-.023 8.919a1 1 0 0 1-.707 1.225l.259.966a2 2 0 0 0 1.414-2.45l-.966.259zm-.707 1.225a1 1 0 0 1-1.225-.707l-.966.259a2 2 0 0 0 2.45 1.414l-.259-.966zm-1.225-.707a1 1 0 0 1 .707-1.225l-.259-.966a2 2 0 0 0-1.414 2.45l.966-.259zm.707-1.225a1 1 0 0 1 1.225.707l.966-.259a2 2 0 0 0-2.45-1.414l.259.966zM14.72 13.85l1.323-.354-.259-.966-1.323.354.259.966zm.711-.708l.31 1.159.966-.259-.311-1.159-.966.259zm.689 1.519l1.289.276.209-.978-1.289-.276-.209.978zm1.8.079l.738-1.026-.812-.584-.738 1.026.812.584zm.031-.918l1.015.763.601-.799-1.015-.763-.601.799zm.88.119l-.549.975.871.49.549-.975-.871-.49zm-.464 1.577l.826.814.702-.712-.826-.814-.702.712zm1.306.941l1.134-.304-.259-.966-1.134.304.259.966zm.522-.657l.362 1.352.966-.259-.362-1.352-.966.259zm.716.74l-1.134.304.259.966 1.134-.304-.259-.966zm-1.486.654l-.308 1.118.964.266.308-1.118-.964-.266zm-.127 1.65l1.015.763.601-.799-1.015-.763-.601.799zm.88.119l-.686 1.219.871.491.686-1.219-.871-.491zm.05 1.065l-1.015-.763-.601.799 1.015.763.601-.799zm-1.65-.735l-.979.883.67.742.979-.883-.67-.742zm-1.127 1.384l.311 1.159.966-.259-.311-1.159-.966.259zm.664.547l-1.323.355.259.966 1.323-.355-.259-.966zm-.711.708l-.311-1.159-.966.259.311 1.159.966-.259zm-.689-1.519l-1.289-.276-.209.978 1.289.276.209-.978zm-1.829-.032l-.686 1.219.871.491.686-1.219-.871-.49zm.004 1.034l-1.204-.713-.509.86 1.204.713.509-.86zm-1.023-.037l.686-1.219-.872-.49-.686 1.219.871.49zm.653-1.761l-.637-.865-.805.593.637.865.805-.593zm-1.169-1.051l-1.134.304.259.966 1.134-.304-.259-.966zm-.522.657l-.362-1.352-.966.259.362 1.352.966-.259zm-.716-.74l1.134-.304-.259-.966-1.134.304.259.966zm1.501-.731l.119-1.067-.994-.111-.119 1.067.994.111zm-.172-1.579l-1.152-.519-.411.912 1.152.519.411-.912zm-.897.132l.497-1.168-.92-.391-.497 1.168.92.391zm-.128-.892l1.341.469.33-.944-1.341-.469-.33.944zm1.841.368l.979-.883-.67-.742-.979.883.67.742zm1.127-1.384l-.311-1.159-.966.259.311 1.159.966-.259z" fill="#2d3436"/></svg>