<svg width="24" height="24" viewBox="0 0 24 24" fill="none" xmlns="http://www.w3.org/2000/svg">
<path fill-rule="evenodd" clip-rule="evenodd" d="M1.5 6C1.5 5.17157 2.17157 4.5 3 4.5H21C21.8284 4.5 22.5 5.17157 22.5 6V15C22.5 15.8284 21.8284 16.5 21 16.5H14.5V19.5H17C17.2761 19.5 17.5 19.7239 17.5 20C17.5 20.2761 17.2761 20.5 17 20.5H7C6.72386 20.5 6.5 20.2761 6.5 20C6.5 19.7239 6.72386 19.5 7 19.5H9.5V16.5H3C2.17157 16.5 1.5 15.8284 1.5 15V6ZM21 15.5C21.2761 15.5 21.5 15.2761 21.5 15V6C21.5 5.72386 21.2761 5.5 21 5.5H3C2.72386 5.5 2.5 5.72386 2.5 6V15C2.5 15.2761 2.72386 15.5 3 15.5H21ZM10.5 16.5V19.5H13.5V16.5H10.5ZM8 8.30005C6.61929 8.30005 5.5 9.41934 5.5 10.8C5.5 12.1808 6.61929 13.3 8 13.3C9.38071 13.3 10.5 12.1808 10.5 10.8C10.5 9.41934 9.38071 8.30005 8 8.30005ZM4.5 10.8C4.5 8.86705 6.067 7.30005 8 7.30005C9.933 7.30005 11.5 8.86705 11.5 10.8C11.5 12.733 9.933 14.3 8 14.3C6.067 14.3 4.5 12.733 4.5 10.8ZM12.5 8.80005C12.5 8.52391 12.7239 8.30005 13 8.30005H19C19.2761 8.30005 19.5 8.52391 19.5 8.80005C19.5 9.07619 19.2761 9.30005 19 9.30005H13C12.7239 9.30005 12.5 9.07619 12.5 8.80005ZM7 9.49103L9.61803 10.8L7 12.1091V9.49103ZM12.5 10.3C12.5 10.0239 12.7239 9.80005 13 9.80005H19C19.2761 9.80005 19.5 10.0239 19.5 10.3C19.5 10.5762 19.2761 10.8 19 10.8H13C12.7239 10.8 12.5 10.5762 12.5 10.3ZM12.5 11.8C12.5 11.5239 12.7239 11.3 13 11.3H16C16.2761 11.3 16.5 11.5239 16.5 11.8C16.5 12.0762 16.2761 12.3 16 12.3H13C12.7239 12.3 12.5 12.0762 12.5 11.8Z" fill="#2D3436"/>
</svg>
